<svg xmlns="http://www.w3.org/2000/svg" width="1600" height="480" viewBox="0 0 1600 480" role="img" aria-labelledby="title description">
  <title id="title">Runic Flow banner</title>
  <desc id="description">Generated from the Runic Artifex vector brand system.</desc>
  <defs>
    <linearGradient id="ground" x1="0" y1="0" x2="1" y2="1">
      <stop offset="0" stop-color="#0b100d"/>
      <stop offset=".52" stop-color="#101914"/>
      <stop offset="1" stop-color="#07100b"/>
    </linearGradient>
    <radialGradient id="vignette" cx="50%" cy="43%" r="73%">
      <stop offset="0" stop-color="#314536" stop-opacity=".16"/>
      <stop offset=".56" stop-color="#0b100d" stop-opacity="0"/>
      <stop offset="1" stop-color="#000" stop-opacity=".68"/>
    </radialGradient>
    <radialGradient id="medallion" cx="38%" cy="32%" r="72%">
      <stop offset="0" stop-color="#26392c"/>
      <stop offset=".52" stop-color="#18231b"/>
      <stop offset="1" stop-color="#050906"/>
    </radialGradient>
    <linearGradient id="parchment" x1="0" y1="0" x2="0" y2="1">
      <stop offset="0" stop-color="#fff9e8"/>
      <stop offset=".46" stop-color="#eee4cb"/>
      <stop offset="1" stop-color="#cdbf9e"/>
    </linearGradient>
    <linearGradient id="gold" x1="0" y1="0" x2="1" y2="1">
      <stop offset="0" stop-color="#786034"/>
      <stop offset=".38" stop-color="#d4b36a"/>
      <stop offset=".63" stop-color="#9d7d40"/>
      <stop offset="1" stop-color="#e0c27c"/>
    </linearGradient>
    <pattern id="fibers" width="180" height="36" patternUnits="userSpaceOnUse">
      <path d="M-15 8C28 2 58 14 108 7S168 5 198 11M-20 27C22 21 76 33 126 25S173 24 204 29" fill="none" stroke="#c4ad72" stroke-width=".55" opacity=".12"/>
    </pattern>
    <filter id="patina" x="-12%" y="-12%" width="124%" height="124%">
      <feTurbulence type="fractalNoise" baseFrequency=".008 .021" numOctaves="4" seed="236" stitchTiles="stitch" result="cloud"/>
      <feColorMatrix in="cloud" type="matrix" values=".18 0 0 0 .04  0 .22 0 0 .07  0 0 .12 0 .035  0 0 0 0.25 0" result="tinted"/>
      <feBlend in="SourceGraphic" in2="tinted" mode="soft-light"/>
    </filter>
    <filter id="paper-grain" x="-8%" y="-8%" width="116%" height="116%">
      <feTurbulence type="fractalNoise" baseFrequency=".46" numOctaves="2" seed="255" stitchTiles="stitch" result="noise"/>
      <feColorMatrix in="noise" type="saturate" values="0" result="mono"/>
      <feComponentTransfer in="mono"><feFuncA type="linear" slope=".105"/></feComponentTransfer>
    </filter>
    <filter id="soft-glow" x="-40%" y="-40%" width="180%" height="180%">
      <feGaussianBlur stdDeviation="2.4" result="blur"/>
      <feMerge><feMergeNode in="blur"/><feMergeNode in="SourceGraphic"/></feMerge>
    </filter>
    <filter id="engraved-shadow" x="-20%" y="-20%" width="140%" height="150%">
      <feDropShadow dx="0" dy="3" stdDeviation="2.2" flood-color="#000" flood-opacity=".75"/>
    </filter>
    <filter id="medallion-shadow" x="-45%" y="-45%" width="190%" height="200%">
      <feDropShadow dx="0" dy="6" stdDeviation="6" flood-color="#000" flood-opacity=".72"/>
    </filter>
  </defs>
<rect width="1600" height="480" fill="url(#ground)"/><rect width="1600" height="480" fill="#17241a" filter="url(#patina)" opacity=".72"/><rect width="1600" height="480" fill="url(#fibers)" opacity=".58"/><rect width="1600" height="480" fill="#a9925b" filter="url(#paper-grain)" opacity=".2"/><rect width="1600" height="480" fill="url(#vignette)"/>
<g fill="none" stroke="url(#gold)" stroke-width="1.25" opacity="0.84">
    <rect x="22" y="22" width="1556" height="436"/>
    <g transform="translate(22 22) scale(1 1)">
    <path d="M0 46L46 0"/>
    <path d="M0 0L24 24M24 0V24L14 34L5 27L14 18L24 24M24 0L34 10"/>
    <path d="M34 27L36 31L40 33L36 35L34 39L32 35L28 33L32 31Z" fill="#75633a" stroke="none" opacity=".8"/>
    <path d="M14 58V76M58 14H76" opacity=".72"/>
  </g><g transform="translate(1578 22) scale(-1 1)">
    <path d="M0 46L46 0"/>
    <path d="M0 0L24 24M24 0V24L14 34L5 27L14 18L24 24M24 0L34 10"/>
    <path d="M34 27L36 31L40 33L36 35L34 39L32 35L28 33L32 31Z" fill="#75633a" stroke="none" opacity=".8"/>
    <path d="M14 58V76M58 14H76" opacity=".72"/>
  </g><g transform="translate(22 458) scale(1 -1)">
    <path d="M0 46L46 0"/>
    <path d="M0 0L24 24M24 0V24L14 34L5 27L14 18L24 24M24 0L34 10"/>
    <path d="M34 27L36 31L40 33L36 35L34 39L32 35L28 33L32 31Z" fill="#75633a" stroke="none" opacity=".8"/>
    <path d="M14 58V76M58 14H76" opacity=".72"/>
  </g><g transform="translate(1578 458) scale(-1 -1)">
    <path d="M0 46L46 0"/>
    <path d="M0 0L24 24M24 0V24L14 34L5 27L14 18L24 24M24 0L34 10"/>
    <path d="M34 27L36 31L40 33L36 35L34 39L32 35L28 33L32 31Z" fill="#75633a" stroke="none" opacity=".8"/>
    <path d="M14 58V76M58 14H76" opacity=".72"/>
  </g>
    <g transform="translate(800 22) rotate(0)"><path d="M-28 0H-12L0-12L12 0H28M-7 0L0 7L7 0"/><path d="M0-12V-22M-4-17L0-13L4-17" opacity=".7"/></g><g transform="translate(800 458) rotate(180)"><path d="M-28 0H-12L0-12L12 0H28M-7 0L0 7L7 0"/><path d="M0-12V-22M-4-17L0-13L4-17" opacity=".7"/></g><g transform="translate(22 240) rotate(-90)"><path d="M-28 0H-12L0-12L12 0H28M-7 0L0 7L7 0"/><path d="M0-12V-22M-4-17L0-13L4-17" opacity=".7"/></g><g transform="translate(1578 240) rotate(90)"><path d="M-28 0H-12L0-12L12 0H28M-7 0L0 7L7 0"/><path d="M0-12V-22M-4-17L0-13L4-17" opacity=".7"/></g>
    <path d="M34 146V173M34 307V334M1566 146V173M1566 307V334" opacity=".7"/>
  </g>
<path d="M90 257H1000" fill="none" stroke="#c9a65b" stroke-width="2" opacity=".8"/>
<g transform="translate(90 257) rotate(-90)" fill="none" stroke="#c9a65b" stroke-width="1.25" opacity=".82">
    <path d="M0 0V-42M-10-9L0-19L10-9M-7-27L0-34L7-27M-3-42L0-46L3-42"/>
    <path d="M-15-4H15M-11-8L-7-4L-11 0M11-8L7-4L11 0"/>
  </g>
<g transform="translate(1000 257) rotate(90)" fill="none" stroke="#c9a65b" stroke-width="1.25" opacity=".82">
    <path d="M0 0V-42M-10-9L0-19L10-9M-7-27L0-34L7-27M-3-42L0-46L3-42"/>
    <path d="M-15-4H15M-11-8L-7-4L-11 0M11-8L7-4L11 0"/>
  </g>
<g fill="url(#parchment)" opacity="1" filter="url(#engraved-shadow)" aria-label="Runic Flow"><path d="M546 0Q530 0 493.5 40Q457 80 406 154Q355 228 291 330L358 352Q442 226 500.5 151.5Q559 77 604 44.5Q649 12 690 12Q693 12 693 6Q693 0 690 0Q634 0 598.5 0Q563 0 546 0ZM288 628Q374 628 419.5 594.5Q465 561 465 502Q465 465 447.5 431Q430 397 400.5 371Q371 345 332.5 330Q294 315 253 315Q241 315 228 315.5Q215 316 204 317L204 81Q204 52 209.5 37Q215 22 232.5 17Q250 12 285 12Q288 12 288 6Q288 0 285 0Q260 0 230 1Q200 2 164 2Q130 2 99 1Q68 0 43 0Q40 0 40 6Q40 12 43 12Q77 12 94.5 17Q112 22 118.5 37Q125 52 125 81L125 544Q125 573 119 587.5Q113 602 96 607.5Q79 613 44 613Q42 613 42 619Q42 625 44 625Q69 625 99.5 623.5Q130 622 164 622Q191 622 226 625Q261 628 288 628ZM382 466Q382 523 367 554.5Q352 586 326.5 598.5Q301 611 269 611Q245 611 231 606.5Q217 602 210.5 587Q204 572 204 542L204 343Q218 342 234.5 340.5Q251 339 263 339Q327 339 354.5 367.5Q382 396 382 466Z" transform="translate(86 224) scale(0.088 -0.088)"/><path d="M185 -9Q134 -9 104.5 23.5Q75 56 75 114L75 265Q75 303 68.5 320Q62 337 45 337Q32 337 14 328Q10 326 7.5 332Q5 338 9 339L127 394Q129 395 131 395Q135 395 139 392Q143 389 143 385L143 152Q143 94 163.5 66.5Q184 39 226 39Q262 39 297.5 60Q333 81 358 115L363 104Q321 48 277.5 19.5Q234 -9 185 -9ZM407 385L407 110Q407 76 414.5 61Q422 46 440 46Q449 46 460.5 49.5Q472 53 489 60Q493 62 495.5 56.5Q498 51 495 49L371 -10Q369 -11 366 -11Q358 -11 348.5 11.5Q339 34 339 76L339 265Q339 303 332 320Q325 337 309 337Q296 337 277 328Q274 326 271.5 332Q269 338 273 339L391 394Q393 395 395 395Q398 395 402.5 392Q407 389 407 385Z" transform="translate(143.904 224) scale(0.088 -0.088)"/><path d="M312 0Q309 0 309 6Q309 12 312 12Q348 12 359.5 25.5Q371 39 371 81L371 238Q371 295 350 322.5Q329 350 283 350Q248 350 212.5 329.5Q177 309 152 273L148 285Q189 341 232.5 370Q276 399 324 399Q379 399 409.5 367Q440 335 440 276L440 81Q440 39 451.5 25.5Q463 12 500 12Q503 12 503 6Q503 0 500 0Q481 0 457 1Q433 2 406 2Q379 2 354.5 1Q330 0 312 0ZM43 0Q40 0 40 6Q40 12 43 12Q79 12 90.5 25.5Q102 39 102 81L102 276Q102 308 94.5 323Q87 338 69 338Q59 338 46 334.5Q33 331 16 324Q12 322 10 327.5Q8 333 11 335L134 394Q138 395 140 395Q149 395 160 373Q171 351 171 310L171 81Q171 39 182.5 25.5Q194 12 231 12Q234 12 234 6Q234 0 231 0Q212 0 188 1Q164 2 137 2Q110 2 85.5 1Q61 0 43 0Z" transform="translate(187.64 224) scale(0.088 -0.088)"/><path d="M49 0Q46 0 46 6Q46 12 49 12Q85 12 97 25.5Q109 39 109 81L109 265Q109 300 102 316Q95 332 77 332Q69 332 58.5 329Q48 326 34 319Q30 318 27.5 323.5Q25 329 29 331L165 394Q168 395 169 395Q172 395 175.5 392Q179 389 179 385Q179 376 178 346Q177 316 177 267L177 81Q177 39 188.5 25.5Q200 12 237 12Q240 12 240 6Q240 0 237 0Q219 0 194.5 1Q170 2 143 2Q116 2 92 1Q68 0 49 0ZM137 507Q114 507 101 519.5Q88 532 88 555Q88 577 101 589Q114 601 137 601Q160 601 172 589Q184 577 184 555Q184 507 137 507Z" transform="translate(233.4 224) scale(0.088 -0.088)"/><path d="M232 -12Q163 -12 119.5 17.5Q76 47 55.5 92.5Q35 138 35 185Q35 235 55 274Q75 313 107.5 340Q140 367 180 381Q220 395 259 395Q287 395 314.5 387Q342 379 360 364.5Q378 350 378 330Q378 316 367.5 304.5Q357 293 337 293Q318 293 306 304Q294 315 287 332Q278 352 265 363.5Q252 375 224 375Q171 375 141.5 331Q112 287 112 216Q112 166 129 122.5Q146 79 182 53Q218 27 276 27Q304 27 328.5 34.5Q353 42 376 58Q379 60 382.5 56Q386 52 383 50Q349 19 313 3.5Q277 -12 232 -12Z" transform="translate(257.16 224) scale(0.088 -0.088)"/><path d="M39 0Q37 0 37 6Q37 12 39 12Q76 12 93.5 17Q111 22 117.5 37Q124 52 124 81L124 544Q124 573 118 587.5Q112 602 94.5 607.5Q77 613 43 613Q40 613 40 619Q40 625 43 625L451 625Q461 625 461 616L463 490Q463 487 457.5 486.5Q452 486 451 489Q444 544 412 572.5Q380 601 328 601L277 601Q233 601 218 589Q203 577 203 543L203 85Q203 55 211 39.5Q219 24 244.5 18Q270 12 320 12Q322 12 322 6Q322 0 320 0Q287 0 248.5 1Q210 2 162 2Q128 2 96 1Q64 0 39 0ZM401 218Q401 261 375 281.5Q349 302 292 302L165 302L165 325L295 325Q350 325 375 343Q400 361 400 397Q400 399 406 399Q412 399 412 397Q412 366 411.5 349Q411 332 411 313Q411 290 412 267Q413 244 413 218Q413 216 407 216Q401 216 401 218Z" transform="translate(314.272 224) scale(0.088 -0.088)"/><path d="M38 0Q36 0 36 6Q36 12 38 12Q75 12 86.5 25.5Q98 39 98 81L99 595Q99 630 92.5 646Q86 662 68 662Q53 662 25 649Q21 647 18.5 653Q16 659 19 660L153 724Q155 725 157 725Q160 725 164.5 722Q169 719 169 715L169 81Q169 40 180 26Q191 12 228 12Q232 12 232 6Q232 0 228 0Q210 0 185.5 1Q161 2 133 2Q106 2 81.5 1Q57 0 38 0Z" transform="translate(359.416 224) scale(0.088 -0.088)"/><path d="M233 -13Q172 -13 127.5 16Q83 45 59 93.5Q35 142 35 198Q35 250 54.5 288Q74 326 106 350.5Q138 375 176 387Q214 399 251 399Q313 399 357 369Q401 339 424.5 292Q448 245 448 193Q448 130 418 83.5Q388 37 339.5 12Q291 -13 233 -13ZM262 6Q311 6 338.5 44.5Q366 83 366 162Q366 229 346 277.5Q326 326 292.5 352.5Q259 379 217 379Q168 379 141.5 341.5Q115 304 115 231Q115 168 134 116.5Q153 65 186 35.5Q219 6 262 6Z" transform="translate(382.384 224) scale(0.088 -0.088)"/><path d="M449 1L305 303Q284 347 271.5 360.5Q259 374 240 374Q238 374 238 380Q238 386 240 386Q255 386 272.5 385Q290 384 313 384Q347 384 372.5 385Q398 386 418 386Q421 386 421 380Q421 374 418 374Q390 374 374 365.5Q358 357 369 335L494 77L459 22L573 299Q588 337 571 355.5Q554 374 506 374Q503 374 503 380Q503 386 506 386Q529 386 550.5 385Q572 384 606 384Q629 384 643 385Q657 386 676 386Q679 386 679 380Q679 374 676 374Q651 374 632 356.5Q613 339 595 296L471 1Q469 -3 460 -3Q451 -3 449 1ZM210 1L65 303Q44 348 30 361Q16 374 -4 374Q-7 374 -7 380Q-7 386 -4 386Q11 386 30 385Q49 384 73 384Q107 384 132 385Q157 386 179 386Q182 386 182 380Q182 374 179 374Q150 374 133.5 366Q117 358 128 335L255 77L219 22L328 285L348 277L232 1Q231 -3 221.5 -3Q212 -3 210 1Z" transform="translate(424.8 224) scale(0.088 -0.088)"/></g>
<g fill="url(#parchment)" opacity="0.92" aria-label="Typed application mechanics without a UI dependency."><path d="M233 0L233 626L12 626L12 710L540 710L540 626L319 626L319 0Z" transform="translate(90 300) scale(0.029 -0.029)"/><path d="M103 -150L103 -76L164 -76Q192 -76 205.5 -67.5Q219 -59 226 -40L245 10L216 10L22 530L114 530L272 88L423 530L515 530L300 -67Q285 -110 255 -130Q225 -150 172 -150Z" transform="translate(104.558 300) scale(0.029 -0.029)"/><path d="M80 -150L80 530L158 530L160 416L148 422Q168 481 214.5 511.5Q261 542 322 542Q401 542 451.5 503Q502 464 526.5 401Q551 338 551 265Q551 192 526.5 129Q502 66 451.5 27Q401 -12 322 -12Q281 -12 245.5 2Q210 16 185.5 41Q161 66 152 100L164 114L164 -150ZM314 68Q383 68 423 120Q463 172 463 265Q463 358 423 410Q383 462 314 462Q268 462 234.5 440Q201 418 182.5 374Q164 330 164 265Q164 200 182 156Q200 112 234 90Q268 68 314 68Z" transform="translate(119.435 300) scale(0.029 -0.029)"/><path d="M287 -12Q212 -12 157.5 22Q103 56 73.5 118.5Q44 181 44 265Q44 349 73.5 411Q103 473 156.5 507.5Q210 542 283 542Q352 542 405 509.5Q458 477 487.5 415Q517 353 517 264L517 239L132 239Q137 154 177.5 111Q218 68 287 68Q339 68 372.5 92.5Q406 117 419 157L509 150Q488 79 429.5 33.5Q371 -12 287 -12ZM132 313L425 313Q419 390 380.5 426Q342 462 283 462Q222 462 182.5 424.5Q143 387 132 313Z" transform="translate(136.4 300) scale(0.029 -0.029)"/><path d="M268 -12Q199 -12 148.5 22Q98 56 71 118Q44 180 44 265Q44 350 71 412Q98 474 148.5 508Q199 542 268 542Q321 542 365 519.5Q409 497 431 456L431 710L515 710L515 0L439 0L436 80Q414 37 369 12.5Q324 -12 268 -12ZM285 68Q332 68 364.5 92Q397 116 414 160.5Q431 205 431 265Q431 327 414 371Q397 415 364.5 438.5Q332 462 285 462Q215 462 173.5 409.5Q132 357 132 265Q132 174 173.5 121Q215 68 285 68Z" transform="translate(152.379 300) scale(0.029 -0.029)"/><path d="M223 -12Q141 -12 92.5 26Q44 64 44 132Q44 200 84 239Q124 278 211 294L399 329Q399 396 367.5 429Q336 462 273 462Q218 462 186 437.5Q154 413 142 367L53 374Q68 449 125.5 495.5Q183 542 273 542Q375 542 429 484.5Q483 427 483 326L483 107Q483 89 489.5 81.5Q496 74 511 74L532 74L532 0Q528 -1 519 -1.5Q510 -2 500 -2Q464 -2 441.5 9.5Q419 21 409 45.5Q399 70 399 110L409 108Q402 74 375 46.5Q348 19 308 3.5Q268 -12 223 -12ZM231 62Q284 62 321.5 82.5Q359 103 379 138.5Q399 174 399 218L399 256L227 224Q173 214 152.5 193.5Q132 173 132 140Q132 103 158.5 82.5Q185 62 231 62Z" transform="translate(176.884 300) scale(0.029 -0.029)"/><path d="M80 -150L80 530L158 530L160 416L148 422Q168 481 214.5 511.5Q261 542 322 542Q401 542 451.5 503Q502 464 526.5 401Q551 338 551 265Q551 192 526.5 129Q502 66 451.5 27Q401 -12 322 -12Q281 -12 245.5 2Q210 16 185.5 41Q161 66 152 100L164 114L164 -150ZM314 68Q383 68 423 120Q463 172 463 265Q463 358 423 410Q383 462 314 462Q268 462 234.5 440Q201 418 182.5 374Q164 330 164 265Q164 200 182 156Q200 112 234 90Q268 68 314 68Z" transform="translate(192.747 300) scale(0.029 -0.029)"/><path d="M80 -150L80 530L158 530L160 416L148 422Q168 481 214.5 511.5Q261 542 322 542Q401 542 451.5 503Q502 464 526.5 401Q551 338 551 265Q551 192 526.5 129Q502 66 451.5 27Q401 -12 322 -12Q281 -12 245.5 2Q210 16 185.5 41Q161 66 152 100L164 114L164 -150ZM314 68Q383 68 423 120Q463 172 463 265Q463 358 423 410Q383 462 314 462Q268 462 234.5 440Q201 418 182.5 374Q164 330 164 265Q164 200 182 156Q200 112 234 90Q268 68 314 68Z" transform="translate(209.712 300) scale(0.029 -0.029)"/><path d="M184 0Q138 0 109 24Q80 48 80 100L80 710L164 710L164 107Q164 91 172.5 82.5Q181 74 197 74L243 74L243 0Z" transform="translate(226.822 300) scale(0.029 -0.029)"/><path d="M80 0L80 530L164 530L164 0ZM78 613L78 711L166 711L166 613Z" transform="translate(234.333 300) scale(0.029 -0.029)"/><path d="M287 -12Q213 -12 158.5 22Q104 56 74 118.5Q44 181 44 265Q44 349 74 411Q104 473 158.5 507.5Q213 542 287 542Q348 542 395.5 520.5Q443 499 473 458Q503 417 512 358L424 352Q415 405 378 433.5Q341 462 287 462Q214 462 173 409.5Q132 357 132 265Q132 173 173 120.5Q214 68 287 68Q341 68 378 98Q415 128 424 188L512 182Q503 123 473 79.5Q443 36 395.5 12Q348 -12 287 -12Z" transform="translate(241.119 300) scale(0.029 -0.029)"/><path d="M223 -12Q141 -12 92.5 26Q44 64 44 132Q44 200 84 239Q124 278 211 294L399 329Q399 396 367.5 429Q336 462 273 462Q218 462 186 437.5Q154 413 142 367L53 374Q68 449 125.5 495.5Q183 542 273 542Q375 542 429 484.5Q483 427 483 326L483 107Q483 89 489.5 81.5Q496 74 511 74L532 74L532 0Q528 -1 519 -1.5Q510 -2 500 -2Q464 -2 441.5 9.5Q419 21 409 45.5Q399 70 399 110L409 108Q402 74 375 46.5Q348 19 308 3.5Q268 -12 223 -12ZM231 62Q284 62 321.5 82.5Q359 103 379 138.5Q399 174 399 218L399 256L227 224Q173 214 152.5 193.5Q132 173 132 140Q132 103 158.5 82.5Q185 62 231 62Z" transform="translate(257.069 300) scale(0.029 -0.029)"/><path d="M274 0Q202 0 167.5 33Q133 66 133 136L133 654L217 654L217 138Q217 102 233 88Q249 74 282 74L358 74L358 0ZM55 456L55 530L358 530L358 456Z" transform="translate(271.598 300) scale(0.029 -0.029)"/><path d="M80 0L80 530L164 530L164 0ZM78 613L78 711L166 711L166 613Z" transform="translate(282.502 300) scale(0.029 -0.029)"/><path d="M287 -12Q214 -12 159 22Q104 56 74 118.5Q44 181 44 265Q44 350 74 412Q104 474 159 508Q214 542 287 542Q360 542 414.5 508Q469 474 499 412Q529 350 529 265Q529 181 499 118.5Q469 56 414.5 22Q360 -12 287 -12ZM287 68Q360 68 400.5 120.5Q441 173 441 265Q441 357 400.5 409.5Q360 462 287 462Q214 462 173 409.5Q132 357 132 265Q132 173 173 120.5Q214 68 287 68Z" transform="translate(289.288 300) scale(0.029 -0.029)"/><path d="M80 0L80 530L157 530L160 395L150 404Q160 451 185 481.5Q210 512 245.5 527Q281 542 322 542Q383 542 422.5 515Q462 488 481.5 442.5Q501 397 501 341L501 0L417 0L417 317Q417 366 405.5 399.5Q394 433 369 450.5Q344 468 304 468Q243 468 203.5 429.5Q164 391 164 317L164 0Z" transform="translate(305.615 300) scale(0.029 -0.029)"/><path d="M80 0L80 530L157 530L160 396L148 400Q157 444 179.5 475.5Q202 507 235 524.5Q268 542 308 542Q377 542 420.5 504Q464 466 475 398L459 399Q467 445 488.5 476.5Q510 508 544 525Q578 542 622 542Q679 542 718 518.5Q757 495 777 450Q797 405 797 341L797 0L713 0L713 323Q713 395 685 431.5Q657 468 602 468Q565 468 537.5 450Q510 432 495 398.5Q480 365 480 317L480 0L396 0L396 317Q396 388 371 428Q346 468 287 468Q250 468 222.5 450Q195 432 179.5 398Q164 364 164 317L164 0Z" transform="translate(329.714 300) scale(0.029 -0.029)"/><path d="M287 -12Q212 -12 157.5 22Q103 56 73.5 118.5Q44 181 44 265Q44 349 73.5 411Q103 473 156.5 507.5Q210 542 283 542Q352 542 405 509.5Q458 477 487.5 415Q517 353 517 264L517 239L132 239Q137 154 177.5 111Q218 68 287 68Q339 68 372.5 92.5Q406 117 419 157L509 150Q488 79 429.5 33.5Q371 -12 287 -12ZM132 313L425 313Q419 390 380.5 426Q342 462 283 462Q222 462 182.5 424.5Q143 387 132 313Z" transform="translate(354.799 300) scale(0.029 -0.029)"/><path d="M287 -12Q213 -12 158.5 22Q104 56 74 118.5Q44 181 44 265Q44 349 74 411Q104 473 158.5 507.5Q213 542 287 542Q348 542 395.5 520.5Q443 499 473 458Q503 417 512 358L424 352Q415 405 378 433.5Q341 462 287 462Q214 462 173 409.5Q132 357 132 265Q132 173 173 120.5Q214 68 287 68Q341 68 378 98Q415 128 424 188L512 182Q503 123 473 79.5Q443 36 395.5 12Q348 -12 287 -12Z" transform="translate(370.778 300) scale(0.029 -0.029)"/><path d="M80 0L80 710L164 710L164 413L154 415Q164 459 188 487Q212 515 247 528.5Q282 542 324 542Q381 542 420.5 516.5Q460 491 480.5 445.5Q501 400 501 341L501 0L417 0L417 317Q417 394 389.5 431Q362 468 306 468Q242 468 203 429Q164 390 164 316L164 0Z" transform="translate(386.322 300) scale(0.029 -0.029)"/><path d="M223 -12Q141 -12 92.5 26Q44 64 44 132Q44 200 84 239Q124 278 211 294L399 329Q399 396 367.5 429Q336 462 273 462Q218 462 186 437.5Q154 413 142 367L53 374Q68 449 125.5 495.5Q183 542 273 542Q375 542 429 484.5Q483 427 483 326L483 107Q483 89 489.5 81.5Q496 74 511 74L532 74L532 0Q528 -1 519 -1.5Q510 -2 500 -2Q464 -2 441.5 9.5Q419 21 409 45.5Q399 70 399 110L409 108Q402 74 375 46.5Q348 19 308 3.5Q268 -12 223 -12ZM231 62Q284 62 321.5 82.5Q359 103 379 138.5Q399 174 399 218L399 256L227 224Q173 214 152.5 193.5Q132 173 132 140Q132 103 158.5 82.5Q185 62 231 62Z" transform="translate(402.881 300) scale(0.029 -0.029)"/><path d="M80 0L80 530L157 530L160 395L150 404Q160 451 185 481.5Q210 512 245.5 527Q281 542 322 542Q383 542 422.5 515Q462 488 481.5 442.5Q501 397 501 341L501 0L417 0L417 317Q417 366 405.5 399.5Q394 433 369 450.5Q344 468 304 468Q243 468 203.5 429.5Q164 391 164 317L164 0Z" transform="translate(418.744 300) scale(0.029 -0.029)"/><path d="M80 0L80 530L164 530L164 0ZM78 613L78 711L166 711L166 613Z" transform="translate(435.419 300) scale(0.029 -0.029)"/><path d="M287 -12Q213 -12 158.5 22Q104 56 74 118.5Q44 181 44 265Q44 349 74 411Q104 473 158.5 507.5Q213 542 287 542Q348 542 395.5 520.5Q443 499 473 458Q503 417 512 358L424 352Q415 405 378 433.5Q341 462 287 462Q214 462 173 409.5Q132 357 132 265Q132 173 173 120.5Q214 68 287 68Q341 68 378 98Q415 128 424 188L512 182Q503 123 473 79.5Q443 36 395.5 12Q348 -12 287 -12Z" transform="translate(442.205 300) scale(0.029 -0.029)"/><path d="M273 -12Q200 -12 150.5 11Q101 34 74.5 74.5Q48 115 44 167L132 173Q140 125 171.5 96.5Q203 68 273 68Q327 68 356.5 85.5Q386 103 386 142Q386 163 376.5 177Q367 191 339 201.5Q311 212 257 222Q183 236 141 257Q99 278 82 308Q65 338 65 380Q65 451 117.5 496.5Q170 542 266 542Q336 542 380.5 517.5Q425 493 448 454Q471 415 476 372L388 366Q386 391 373 413Q360 435 334 448.5Q308 462 264 462Q207 462 180 440Q153 418 153 384Q153 358 163.5 341.5Q174 325 200.5 314.5Q227 304 273 296Q351 283 395 263Q439 243 456.5 213.5Q474 184 474 142Q474 69 417.5 28.5Q361 -12 273 -12Z" transform="translate(457.749 300) scale(0.029 -0.029)"/><path d="M186 0L22 530L114 530L238 88L364 530L454 530L580 88L705 530L797 530L633 0L527 0L409 403L291 0Z" transform="translate(480.079 300) scale(0.029 -0.029)"/><path d="M80 0L80 530L164 530L164 0ZM78 613L78 711L166 711L166 613Z" transform="translate(503.54 300) scale(0.029 -0.029)"/><path d="M274 0Q202 0 167.5 33Q133 66 133 136L133 654L217 654L217 138Q217 102 233 88Q249 74 282 74L358 74L358 0ZM55 456L55 530L358 530L358 456Z" transform="translate(509.456 300) scale(0.029 -0.029)"/><path d="M80 0L80 710L164 710L164 413L154 415Q164 459 188 487Q212 515 247 528.5Q282 542 324 542Q381 542 420.5 516.5Q460 491 480.5 445.5Q501 400 501 341L501 0L417 0L417 317Q417 394 389.5 431Q362 468 306 468Q242 468 203 429Q164 390 164 316L164 0Z" transform="translate(520.36 300) scale(0.029 -0.029)"/><path d="M287 -12Q214 -12 159 22Q104 56 74 118.5Q44 181 44 265Q44 350 74 412Q104 474 159 508Q214 542 287 542Q360 542 414.5 508Q469 474 499 412Q529 350 529 265Q529 181 499 118.5Q469 56 414.5 22Q360 -12 287 -12ZM287 68Q360 68 400.5 120.5Q441 173 441 265Q441 357 400.5 409.5Q360 462 287 462Q214 462 173 409.5Q132 357 132 265Q132 173 173 120.5Q214 68 287 68Z" transform="translate(536.861 300) scale(0.029 -0.029)"/><path d="M254 -12Q175 -12 127.5 41.5Q80 95 80 189L80 530L164 530L164 212Q164 135 191.5 98.5Q219 62 276 62Q339 62 375 102.5Q411 143 411 214L411 530L495 530L495 0L415 0L415 131L428 124Q412 59 367 23.5Q322 -12 254 -12Z" transform="translate(553.188 300) scale(0.029 -0.029)"/><path d="M274 0Q202 0 167.5 33Q133 66 133 136L133 654L217 654L217 138Q217 102 233 88Q249 74 282 74L358 74L358 0ZM55 456L55 530L358 530L358 456Z" transform="translate(569.051 300) scale(0.029 -0.029)"/><path d="M223 -12Q141 -12 92.5 26Q44 64 44 132Q44 200 84 239Q124 278 211 294L399 329Q399 396 367.5 429Q336 462 273 462Q218 462 186 437.5Q154 413 142 367L53 374Q68 449 125.5 495.5Q183 542 273 542Q375 542 429 484.5Q483 427 483 326L483 107Q483 89 489.5 81.5Q496 74 511 74L532 74L532 0Q528 -1 519 -1.5Q510 -2 500 -2Q464 -2 441.5 9.5Q419 21 409 45.5Q399 70 399 110L409 108Q402 74 375 46.5Q348 19 308 3.5Q268 -12 223 -12ZM231 62Q284 62 321.5 82.5Q359 103 379 138.5Q399 174 399 218L399 256L227 224Q173 214 152.5 193.5Q132 173 132 140Q132 103 158.5 82.5Q185 62 231 62Z" transform="translate(587.669 300) scale(0.029 -0.029)"/><path d="M345 -16Q263 -16 202.5 16Q142 48 109.5 107.5Q77 167 77 248L77 710L163 710L163 248Q163 162 210.5 115Q258 68 345 68Q431 68 478.5 115Q526 162 526 248L526 710L612 710L612 248Q612 167 579.5 107.5Q547 48 487 16Q427 -16 345 -16Z" transform="translate(610.898 300) scale(0.029 -0.029)"/><path d="M92 0L92 710L178 710L178 0Z" transform="translate(631.314 300) scale(0.029 -0.029)"/><path d="M268 -12Q199 -12 148.5 22Q98 56 71 118Q44 180 44 265Q44 350 71 412Q98 474 148.5 508Q199 542 268 542Q321 542 365 519.5Q409 497 431 456L431 710L515 710L515 0L439 0L436 80Q414 37 369 12.5Q324 -12 268 -12ZM285 68Q332 68 364.5 92Q397 116 414 160.5Q431 205 431 265Q431 327 414 371Q397 415 364.5 438.5Q332 462 285 462Q215 462 173.5 409.5Q132 357 132 265Q132 174 173.5 121Q215 68 285 68Z" transform="translate(646.394 300) scale(0.029 -0.029)"/><path d="M287 -12Q212 -12 157.5 22Q103 56 73.5 118.5Q44 181 44 265Q44 349 73.5 411Q103 473 156.5 507.5Q210 542 283 542Q352 542 405 509.5Q458 477 487.5 415Q517 353 517 264L517 239L132 239Q137 154 177.5 111Q218 68 287 68Q339 68 372.5 92.5Q406 117 419 157L509 150Q488 79 429.5 33.5Q371 -12 287 -12ZM132 313L425 313Q419 390 380.5 426Q342 462 283 462Q222 462 182.5 424.5Q143 387 132 313Z" transform="translate(663.359 300) scale(0.029 -0.029)"/><path d="M80 -150L80 530L158 530L160 416L148 422Q168 481 214.5 511.5Q261 542 322 542Q401 542 451.5 503Q502 464 526.5 401Q551 338 551 265Q551 192 526.5 129Q502 66 451.5 27Q401 -12 322 -12Q281 -12 245.5 2Q210 16 185.5 41Q161 66 152 100L164 114L164 -150ZM314 68Q383 68 423 120Q463 172 463 265Q463 358 423 410Q383 462 314 462Q268 462 234.5 440Q201 418 182.5 374Q164 330 164 265Q164 200 182 156Q200 112 234 90Q268 68 314 68Z" transform="translate(679.338 300) scale(0.029 -0.029)"/><path d="M287 -12Q212 -12 157.5 22Q103 56 73.5 118.5Q44 181 44 265Q44 349 73.5 411Q103 473 156.5 507.5Q210 542 283 542Q352 542 405 509.5Q458 477 487.5 415Q517 353 517 264L517 239L132 239Q137 154 177.5 111Q218 68 287 68Q339 68 372.5 92.5Q406 117 419 157L509 150Q488 79 429.5 33.5Q371 -12 287 -12ZM132 313L425 313Q419 390 380.5 426Q342 462 283 462Q222 462 182.5 424.5Q143 387 132 313Z" transform="translate(696.303 300) scale(0.029 -0.029)"/><path d="M80 0L80 530L157 530L160 395L150 404Q160 451 185 481.5Q210 512 245.5 527Q281 542 322 542Q383 542 422.5 515Q462 488 481.5 442.5Q501 397 501 341L501 0L417 0L417 317Q417 366 405.5 399.5Q394 433 369 450.5Q344 468 304 468Q243 468 203.5 429.5Q164 391 164 317L164 0Z" transform="translate(712.282 300) scale(0.029 -0.029)"/><path d="M268 -12Q199 -12 148.5 22Q98 56 71 118Q44 180 44 265Q44 350 71 412Q98 474 148.5 508Q199 542 268 542Q321 542 365 519.5Q409 497 431 456L431 710L515 710L515 0L439 0L436 80Q414 37 369 12.5Q324 -12 268 -12ZM285 68Q332 68 364.5 92Q397 116 414 160.5Q431 205 431 265Q431 327 414 371Q397 415 364.5 438.5Q332 462 285 462Q215 462 173.5 409.5Q132 357 132 265Q132 174 173.5 121Q215 68 285 68Z" transform="translate(728.783 300) scale(0.029 -0.029)"/><path d="M287 -12Q212 -12 157.5 22Q103 56 73.5 118.5Q44 181 44 265Q44 349 73.5 411Q103 473 156.5 507.5Q210 542 283 542Q352 542 405 509.5Q458 477 487.5 415Q517 353 517 264L517 239L132 239Q137 154 177.5 111Q218 68 287 68Q339 68 372.5 92.5Q406 117 419 157L509 150Q488 79 429.5 33.5Q371 -12 287 -12ZM132 313L425 313Q419 390 380.5 426Q342 462 283 462Q222 462 182.5 424.5Q143 387 132 313Z" transform="translate(745.748 300) scale(0.029 -0.029)"/><path d="M80 0L80 530L157 530L160 395L150 404Q160 451 185 481.5Q210 512 245.5 527Q281 542 322 542Q383 542 422.5 515Q462 488 481.5 442.5Q501 397 501 341L501 0L417 0L417 317Q417 366 405.5 399.5Q394 433 369 450.5Q344 468 304 468Q243 468 203.5 429.5Q164 391 164 317L164 0Z" transform="translate(761.727 300) scale(0.029 -0.029)"/><path d="M287 -12Q213 -12 158.5 22Q104 56 74 118.5Q44 181 44 265Q44 349 74 411Q104 473 158.5 507.5Q213 542 287 542Q348 542 395.5 520.5Q443 499 473 458Q503 417 512 358L424 352Q415 405 378 433.5Q341 462 287 462Q214 462 173 409.5Q132 357 132 265Q132 173 173 120.5Q214 68 287 68Q341 68 378 98Q415 128 424 188L512 182Q503 123 473 79.5Q443 36 395.5 12Q348 -12 287 -12Z" transform="translate(778.228 300) scale(0.029 -0.029)"/><path d="M103 -150L103 -76L164 -76Q192 -76 205.5 -67.5Q219 -59 226 -40L245 10L216 10L22 530L114 530L272 88L423 530L515 530L300 -67Q285 -110 255 -130Q225 -150 172 -150Z" transform="translate(793.337 300) scale(0.029 -0.029)"/><path d="M44 0L44 113L157 113L157 0Z" transform="translate(807.17 300) scale(0.029 -0.029)"/></g>
<g opacity=".24"><circle cx="1320" cy="240" r="170" fill="none" stroke="#75633a"/><circle cx="1320" cy="240" r="135" fill="none" stroke="#75633a" stroke-dasharray="4 11"/></g>
<g filter="url(#medallion-shadow)">
    <circle cx="1320" cy="240" r="105" fill="#050806" fill-opacity=".78" stroke="#75633a" stroke-width="1"/>
    <circle cx="1320" cy="240" r="100" fill="none" stroke="url(#gold)" stroke-width="1.2" opacity=".72"/>
    <circle cx="1320" cy="240" r="95" fill="url(#medallion)" stroke="url(#gold)" stroke-width="3"/>
    <circle cx="1320" cy="240" r="87" fill="none" stroke="#75633a" stroke-width="1.1" opacity=".9"/>
    <circle cx="1296.25" cy="209.6" r="49.4" fill="none" stroke="#f3d991" stroke-width=".65" opacity=".26"/>
    <g fill="none" stroke="#75633a" stroke-width="1.2" opacity=".8"><path d="M1420 240L1425 240"/><path d="M1320 340L1320 345"/><path d="M1220 240L1215 240"/><path d="M1320 140L1320 135"/></g>
    <g transform="translate(1320 240) scale(1.1019999999999999)" fill="none" stroke="url(#gold)" stroke-width="3" stroke-linecap="square" stroke-linejoin="miter"><style>.sigil-accent{fill:#78956f;stroke:#78956f}</style><path d="M0 -39L0 8"/><polyline points="0,8 -27,35"/><polyline points="0,8 27,35"/><path d="M0 8L0 39"/><path d="M0 -25L5 -20L0 -15L-5 -20Z"/><path class="sigil-accent" d="M0 2L6 8L0 14L-6 8Z"/><path d="M-27 31L-23 35L-27 39L-31 35Z"/><path d="M0 35L4 39L0 43L-4 39Z"/><path d="M27 31L31 35L27 39L23 35Z"/></g>
  </g>
</svg>
