<svg xmlns="http://www.w3.org/2000/svg" width="1200" height="630" viewBox="0 0 1200 630" role="img" aria-labelledby="title description">
  <title id="title">Runic Translations social</title>
  <desc id="description">Generated from the Runic Artifex vector brand system.</desc>
  <defs>
    <linearGradient id="ground" x1="0" y1="0" x2="1" y2="1">
      <stop offset="0" stop-color="#0b100d"/>
      <stop offset=".52" stop-color="#101914"/>
      <stop offset="1" stop-color="#07100b"/>
    </linearGradient>
    <radialGradient id="vignette" cx="50%" cy="43%" r="73%">
      <stop offset="0" stop-color="#314536" stop-opacity=".16"/>
      <stop offset=".56" stop-color="#0b100d" stop-opacity="0"/>
      <stop offset="1" stop-color="#000" stop-opacity=".68"/>
    </radialGradient>
    <radialGradient id="medallion" cx="38%" cy="32%" r="72%">
      <stop offset="0" stop-color="#26392c"/>
      <stop offset=".52" stop-color="#18231b"/>
      <stop offset="1" stop-color="#050906"/>
    </radialGradient>
    <linearGradient id="parchment" x1="0" y1="0" x2="0" y2="1">
      <stop offset="0" stop-color="#fff9e8"/>
      <stop offset=".46" stop-color="#eee4cb"/>
      <stop offset="1" stop-color="#cdbf9e"/>
    </linearGradient>
    <linearGradient id="gold" x1="0" y1="0" x2="1" y2="1">
      <stop offset="0" stop-color="#786034"/>
      <stop offset=".38" stop-color="#d4b36a"/>
      <stop offset=".63" stop-color="#9d7d40"/>
      <stop offset="1" stop-color="#e0c27c"/>
    </linearGradient>
    <linearGradient id="sigil-gold" gradientUnits="userSpaceOnUse" x1="-50" y1="-50" x2="50" y2="50">
      <stop offset="0" stop-color="#786034"/>
      <stop offset=".38" stop-color="#d4b36a"/>
      <stop offset=".63" stop-color="#9d7d40"/>
      <stop offset="1" stop-color="#e0c27c"/>
    </linearGradient>
    <pattern id="fibers" width="180" height="36" patternUnits="userSpaceOnUse">
      <path d="M-15 8C28 2 58 14 108 7S168 5 198 11M-20 27C22 21 76 33 126 25S173 24 204 29" fill="none" stroke="#c4ad72" stroke-width=".55" opacity=".12"/>
    </pattern>
    <filter id="patina" x="-12%" y="-12%" width="124%" height="124%">
      <feTurbulence type="fractalNoise" baseFrequency=".008 .021" numOctaves="4" seed="791" stitchTiles="stitch" result="cloud"/>
      <feColorMatrix in="cloud" type="matrix" values=".18 0 0 0 .04  0 .22 0 0 .07  0 0 .12 0 .035  0 0 0 0.25 0" result="tinted"/>
      <feBlend in="SourceGraphic" in2="tinted" mode="soft-light"/>
    </filter>
    <filter id="paper-grain" x="-8%" y="-8%" width="116%" height="116%">
      <feTurbulence type="fractalNoise" baseFrequency=".46" numOctaves="2" seed="810" stitchTiles="stitch" result="noise"/>
      <feColorMatrix in="noise" type="saturate" values="0" result="mono"/>
      <feComponentTransfer in="mono"><feFuncA type="linear" slope=".105"/></feComponentTransfer>
    </filter>
    <filter id="soft-glow" x="-40%" y="-40%" width="180%" height="180%">
      <feGaussianBlur stdDeviation="2.4" result="blur"/>
      <feMerge><feMergeNode in="blur"/><feMergeNode in="SourceGraphic"/></feMerge>
    </filter>
    <filter id="engraved-shadow" x="-20%" y="-20%" width="140%" height="150%">
      <feDropShadow dx="0" dy="3" stdDeviation="2.2" flood-color="#000" flood-opacity=".75"/>
    </filter>
    <filter id="medallion-shadow" x="-45%" y="-45%" width="190%" height="200%">
      <feDropShadow dx="0" dy="6" stdDeviation="6" flood-color="#000" flood-opacity=".72"/>
    </filter>
  </defs>
<rect width="1200" height="630" fill="url(#ground)"/><rect width="1200" height="630" fill="#17241a" filter="url(#patina)" opacity=".72"/><rect width="1200" height="630" fill="url(#fibers)" opacity=".58"/><rect width="1200" height="630" fill="#a9925b" filter="url(#paper-grain)" opacity=".2"/><rect width="1200" height="630" fill="url(#vignette)"/>
<g fill="none" stroke="url(#gold)" stroke-width="1.25" opacity="0.84">
    <rect x="22" y="22" width="1156" height="586"/>
    <g transform="translate(22 22) scale(1 1)">
    <path d="M0 46L46 0"/>
    <path d="M0 0L24 24M24 0V24L14 34L5 27L14 18L24 24M24 0L34 10"/>
    <path d="M34 27L36 31L40 33L36 35L34 39L32 35L28 33L32 31Z" fill="#75633a" stroke="none" opacity=".8"/>
    <path d="M14 58V76M58 14H76" opacity=".72"/>
  </g><g transform="translate(1178 22) scale(-1 1)">
    <path d="M0 46L46 0"/>
    <path d="M0 0L24 24M24 0V24L14 34L5 27L14 18L24 24M24 0L34 10"/>
    <path d="M34 27L36 31L40 33L36 35L34 39L32 35L28 33L32 31Z" fill="#75633a" stroke="none" opacity=".8"/>
    <path d="M14 58V76M58 14H76" opacity=".72"/>
  </g><g transform="translate(22 608) scale(1 -1)">
    <path d="M0 46L46 0"/>
    <path d="M0 0L24 24M24 0V24L14 34L5 27L14 18L24 24M24 0L34 10"/>
    <path d="M34 27L36 31L40 33L36 35L34 39L32 35L28 33L32 31Z" fill="#75633a" stroke="none" opacity=".8"/>
    <path d="M14 58V76M58 14H76" opacity=".72"/>
  </g><g transform="translate(1178 608) scale(-1 -1)">
    <path d="M0 46L46 0"/>
    <path d="M0 0L24 24M24 0V24L14 34L5 27L14 18L24 24M24 0L34 10"/>
    <path d="M34 27L36 31L40 33L36 35L34 39L32 35L28 33L32 31Z" fill="#75633a" stroke="none" opacity=".8"/>
    <path d="M14 58V76M58 14H76" opacity=".72"/>
  </g>
    <g transform="translate(600 22) rotate(0)"><path d="M-28 0H-12L0-12L12 0H28M-7 0L0 7L7 0"/><path d="M0-12V-22M-4-17L0-13L4-17" opacity=".7"/></g><g transform="translate(600 608) rotate(180)"><path d="M-28 0H-12L0-12L12 0H28M-7 0L0 7L7 0"/><path d="M0-12V-22M-4-17L0-13L4-17" opacity=".7"/></g><g transform="translate(22 315) rotate(-90)"><path d="M-28 0H-12L0-12L12 0H28M-7 0L0 7L7 0"/><path d="M0-12V-22M-4-17L0-13L4-17" opacity=".7"/></g><g transform="translate(1178 315) rotate(90)"><path d="M-28 0H-12L0-12L12 0H28M-7 0L0 7L7 0"/><path d="M0-12V-22M-4-17L0-13L4-17" opacity=".7"/></g>
    <path d="M34 221V248M34 382V409M1166 221V248M1166 382V409" opacity=".7"/>
  </g>
<path d="M80 304H625" fill="none" stroke="#c9a65b" stroke-width="1.7" opacity=".92"/>
<g transform="translate(80 304) rotate(-90)" fill="none" stroke="#c9a65b" stroke-width="1.25" opacity=".82">
    <path d="M0 0V-42M-10-9L0-19L10-9M-7-27L0-34L7-27M-3-42L0-46L3-42"/>
    <path d="M-15-4H15M-11-8L-7-4L-11 0M11-8L7-4L11 0"/>
  </g>
<g transform="translate(625 304) rotate(90)" fill="none" stroke="#c9a65b" stroke-width="1.25" opacity=".82">
    <path d="M0 0V-42M-10-9L0-19L10-9M-7-27L0-34L7-27M-3-42L0-46L3-42"/>
    <path d="M-15-4H15M-11-8L-7-4L-11 0M11-8L7-4L11 0"/>
  </g>
<g fill="url(#parchment)" opacity="1" filter="url(#engraved-shadow)" aria-label="Runic Translations"><path d="M546 0Q530 0 493.5 40Q457 80 406 154Q355 228 291 330L358 352Q442 226 500.5 151.5Q559 77 604 44.5Q649 12 690 12Q693 12 693 6Q693 0 690 0Q634 0 598.5 0Q563 0 546 0ZM288 628Q374 628 419.5 594.5Q465 561 465 502Q465 465 447.5 431Q430 397 400.5 371Q371 345 332.5 330Q294 315 253 315Q241 315 228 315.5Q215 316 204 317L204 81Q204 52 209.5 37Q215 22 232.5 17Q250 12 285 12Q288 12 288 6Q288 0 285 0Q260 0 230 1Q200 2 164 2Q130 2 99 1Q68 0 43 0Q40 0 40 6Q40 12 43 12Q77 12 94.5 17Q112 22 118.5 37Q125 52 125 81L125 544Q125 573 119 587.5Q113 602 96 607.5Q79 613 44 613Q42 613 42 619Q42 625 44 625Q69 625 99.5 623.5Q130 622 164 622Q191 622 226 625Q261 628 288 628ZM382 466Q382 523 367 554.5Q352 586 326.5 598.5Q301 611 269 611Q245 611 231 606.5Q217 602 210.5 587Q204 572 204 542L204 343Q218 342 234.5 340.5Q251 339 263 339Q327 339 354.5 367.5Q382 396 382 466Z" transform="translate(78 268) scale(0.0783 -0.0783)"/><path d="M185 -9Q134 -9 104.5 23.5Q75 56 75 114L75 265Q75 303 68.5 320Q62 337 45 337Q32 337 14 328Q10 326 7.5 332Q5 338 9 339L127 394Q129 395 131 395Q135 395 139 392Q143 389 143 385L143 152Q143 94 163.5 66.5Q184 39 226 39Q262 39 297.5 60Q333 81 358 115L363 104Q321 48 277.5 19.5Q234 -9 185 -9ZM407 385L407 110Q407 76 414.5 61Q422 46 440 46Q449 46 460.5 49.5Q472 53 489 60Q493 62 495.5 56.5Q498 51 495 49L371 -10Q369 -11 366 -11Q358 -11 348.5 11.5Q339 34 339 76L339 265Q339 303 332 320Q325 337 309 337Q296 337 277 328Q274 326 271.5 332Q269 338 273 339L391 394Q393 395 395 395Q398 395 402.5 392Q407 389 407 385Z" transform="translate(129.5034 268) scale(0.0783 -0.0783)"/><path d="M312 0Q309 0 309 6Q309 12 312 12Q348 12 359.5 25.5Q371 39 371 81L371 238Q371 295 350 322.5Q329 350 283 350Q248 350 212.5 329.5Q177 309 152 273L148 285Q189 341 232.5 370Q276 399 324 399Q379 399 409.5 367Q440 335 440 276L440 81Q440 39 451.5 25.5Q463 12 500 12Q503 12 503 6Q503 0 500 0Q481 0 457 1Q433 2 406 2Q379 2 354.5 1Q330 0 312 0ZM43 0Q40 0 40 6Q40 12 43 12Q79 12 90.5 25.5Q102 39 102 81L102 276Q102 308 94.5 323Q87 338 69 338Q59 338 46 334.5Q33 331 16 324Q12 322 10 327.5Q8 333 11 335L134 394Q138 395 140 395Q149 395 160 373Q171 351 171 310L171 81Q171 39 182.5 25.5Q194 12 231 12Q234 12 234 6Q234 0 231 0Q212 0 188 1Q164 2 137 2Q110 2 85.5 1Q61 0 43 0Z" transform="translate(168.4049 268) scale(0.0783 -0.0783)"/><path d="M49 0Q46 0 46 6Q46 12 49 12Q85 12 97 25.5Q109 39 109 81L109 265Q109 300 102 316Q95 332 77 332Q69 332 58.5 329Q48 326 34 319Q30 318 27.5 323.5Q25 329 29 331L165 394Q168 395 169 395Q172 395 175.5 392Q179 389 179 385Q179 376 178 346Q177 316 177 267L177 81Q177 39 188.5 25.5Q200 12 237 12Q240 12 240 6Q240 0 237 0Q219 0 194.5 1Q170 2 143 2Q116 2 92 1Q68 0 49 0ZM137 507Q114 507 101 519.5Q88 532 88 555Q88 577 101 589Q114 601 137 601Q160 601 172 589Q184 577 184 555Q184 507 137 507Z" transform="translate(209.1066 268) scale(0.0783 -0.0783)"/><path d="M232 -12Q163 -12 119.5 17.5Q76 47 55.5 92.5Q35 138 35 185Q35 235 55 274Q75 313 107.5 340Q140 367 180 381Q220 395 259 395Q287 395 314.5 387Q342 379 360 364.5Q378 350 378 330Q378 316 367.5 304.5Q357 293 337 293Q318 293 306 304Q294 315 287 332Q278 352 265 363.5Q252 375 224 375Q171 375 141.5 331Q112 287 112 216Q112 166 129 122.5Q146 79 182 53Q218 27 276 27Q304 27 328.5 34.5Q353 42 376 58Q379 60 382.5 56Q386 52 383 50Q349 19 313 3.5Q277 -12 232 -12Z" transform="translate(230.2402 268) scale(0.0783 -0.0783)"/><path d="M199 605Q137 605 102 570.5Q67 536 50 460Q49 458 43.5 458Q38 458 38 461Q40 474 42.5 498Q45 522 47 550Q49 578 50.5 604Q52 630 52 647Q52 652 58 652Q64 652 64 647Q64 637 74 632.5Q84 628 97 626.5Q110 625 119 625Q205 622 320 622Q390 622 432 623.5Q474 625 513 625Q547 625 565.5 629.5Q584 634 589 650Q590 654 595.5 654Q601 654 601 650Q599 635 597.5 608Q596 581 594.5 552Q593 523 592 498Q591 473 591 461Q591 458 585.5 458Q580 458 580 461Q573 539 540 572Q507 605 442 605Q407 605 389.5 600.5Q372 596 366.5 583Q361 570 361 542L361 81Q361 52 367.5 37Q374 22 393.5 17Q413 12 454 12Q456 12 456 6Q456 0 454 0Q427 0 393.5 1Q360 2 320 2Q282 2 248.5 1Q215 0 187 0Q184 0 184 6Q184 12 187 12Q226 12 246.5 17Q267 22 274 37Q281 52 281 81L281 544Q281 571 275 584.5Q269 598 251 601.5Q233 605 199 605Z" transform="translate(281.0391 268) scale(0.0783 -0.0783)"/><path d="M149 271L143 282Q181 328 206 352Q231 376 249 385.5Q267 395 283 395Q304 395 325 382Q346 369 346 349Q346 334 336 323.5Q326 313 309 313Q293 313 283.5 322Q274 331 264.5 339.5Q255 348 239 348Q231 348 221 343Q211 338 194.5 321.5Q178 305 149 271ZM43 0Q40 0 40 6Q40 12 43 12Q79 12 90.5 25.5Q102 39 102 81L102 276Q102 308 94.5 323Q87 338 69 338Q59 338 46 334.5Q33 331 16 324Q12 322 10 327.5Q8 333 11 335L134 394Q138 395 140 395Q149 395 160 373Q171 351 171 310L171 81Q171 53 178.5 38Q186 23 206.5 17.5Q227 12 266 12Q269 12 269 6Q269 0 266 0Q240 0 207 1Q174 2 137 2Q110 2 85.5 1Q61 0 43 0Z" transform="translate(324.4804 268) scale(0.0783 -0.0783)"/><path d="M316 -6Q312 -8 307 -8Q292 -8 278.5 14.5Q265 37 265 79L265 255Q265 299 257.5 325Q250 351 236.5 362.5Q223 374 205 374Q183 374 168 363Q153 352 145.5 333.5Q138 315 135 293Q133 274 123.5 261.5Q114 249 91 249Q73 249 63 258Q53 267 53 283Q53 302 72 321.5Q91 341 120 358Q149 375 180.5 385Q212 395 239 395Q279 395 306 368.5Q333 342 333 285L333 108Q333 75 342 59Q351 43 371 43Q388 43 415 54Q419 56 421.5 50.5Q424 45 419 43ZM115 -7Q83 -7 66 10Q49 27 49 53Q49 84 73 100Q97 116 150 134L275 177L278 165L176 126Q152 117 142 106Q132 95 132 78Q132 57 144 45Q156 33 175 33Q185 33 196 36Q207 39 219 44L295 84L296 70L210 23Q181 8 158.5 0.5Q136 -7 115 -7Z" transform="translate(352.1889 268) scale(0.0783 -0.0783)"/><path d="M312 0Q309 0 309 6Q309 12 312 12Q348 12 359.5 25.5Q371 39 371 81L371 238Q371 295 350 322.5Q329 350 283 350Q248 350 212.5 329.5Q177 309 152 273L148 285Q189 341 232.5 370Q276 399 324 399Q379 399 409.5 367Q440 335 440 276L440 81Q440 39 451.5 25.5Q463 12 500 12Q503 12 503 6Q503 0 500 0Q481 0 457 1Q433 2 406 2Q379 2 354.5 1Q330 0 312 0ZM43 0Q40 0 40 6Q40 12 43 12Q79 12 90.5 25.5Q102 39 102 81L102 276Q102 308 94.5 323Q87 338 69 338Q59 338 46 334.5Q33 331 16 324Q12 322 10 327.5Q8 333 11 335L134 394Q138 395 140 395Q149 395 160 373Q171 351 171 310L171 81Q171 39 182.5 25.5Q194 12 231 12Q234 12 234 6Q234 0 231 0Q212 0 188 1Q164 2 137 2Q110 2 85.5 1Q61 0 43 0Z" transform="translate(385.0634 268) scale(0.0783 -0.0783)"/><path d="M106 329Q106 305 118.5 287.5Q131 270 151 257Q171 244 193 231Q219 218 242.5 203.5Q266 189 281 168Q296 147 296 113Q296 81 280 52.5Q264 24 232 6.5Q200 -11 152 -11Q128 -11 104 -5Q80 1 54 18Q52 20 50 23Q48 26 48 30L46 114Q46 117 51.5 117.5Q57 118 58 116Q70 83 88.5 58.5Q107 34 130.5 21Q154 8 181 8Q209 8 225 23Q241 38 240 68Q240 96 226.5 114.5Q213 133 193 145.5Q173 158 151 169Q127 181 104 195Q81 209 66.5 230Q52 251 52 285Q52 325 72.5 350Q93 375 125 386.5Q157 398 191 398Q211 398 229 394.5Q247 391 267 383Q276 379 276 372Q276 354 275 335Q274 316 274 294Q274 291 268 291Q262 291 262 294Q262 315 246 334Q230 353 206 365.5Q182 378 156 378Q135 378 120.5 367Q106 356 106 329Z" transform="translate(425.7652 268) scale(0.0783 -0.0783)"/><path d="M38 0Q36 0 36 6Q36 12 38 12Q75 12 86.5 25.5Q98 39 98 81L99 595Q99 630 92.5 646Q86 662 68 662Q53 662 25 649Q21 647 18.5 653Q16 659 19 660L153 724Q155 725 157 725Q160 725 164.5 722Q169 719 169 715L169 81Q169 40 180 26Q191 12 228 12Q232 12 232 6Q232 0 228 0Q210 0 185.5 1Q161 2 133 2Q106 2 81.5 1Q57 0 38 0Z" transform="translate(452.2213 268) scale(0.0783 -0.0783)"/><path d="M316 -6Q312 -8 307 -8Q292 -8 278.5 14.5Q265 37 265 79L265 255Q265 299 257.5 325Q250 351 236.5 362.5Q223 374 205 374Q183 374 168 363Q153 352 145.5 333.5Q138 315 135 293Q133 274 123.5 261.5Q114 249 91 249Q73 249 63 258Q53 267 53 283Q53 302 72 321.5Q91 341 120 358Q149 375 180.5 385Q212 395 239 395Q279 395 306 368.5Q333 342 333 285L333 108Q333 75 342 59Q351 43 371 43Q388 43 415 54Q419 56 421.5 50.5Q424 45 419 43ZM115 -7Q83 -7 66 10Q49 27 49 53Q49 84 73 100Q97 116 150 134L275 177L278 165L176 126Q152 117 142 106Q132 95 132 78Q132 57 144 45Q156 33 175 33Q185 33 196 36Q207 39 219 44L295 84L296 70L210 23Q181 8 158.5 0.5Q136 -7 115 -7Z" transform="translate(472.6505 268) scale(0.0783 -0.0783)"/><path d="M187 -12Q163 -12 140 -4.5Q117 3 102.5 22Q88 41 88 73L88 304Q88 327 84 339Q80 351 69 355Q58 359 36 359Q33 359 33 366.5Q33 374 36 374Q80 375 107.5 395.5Q135 416 142 452Q143 455 150 455Q157 455 157 452L157 107Q157 66 177.5 47Q198 28 234 28Q259 28 279.5 37Q300 46 313 56Q317 59 320.5 54.5Q324 50 320 47Q283 16 252 2Q221 -12 187 -12ZM290 337Q250 346 213 349Q176 352 135 352L135 375Q175 375 212.5 378Q250 381 293 385Q296 385 298 378Q300 371 300 362Q300 354 297 345Q294 336 290 337Z" transform="translate(505.525 268) scale(0.0783 -0.0783)"/><path d="M49 0Q46 0 46 6Q46 12 49 12Q85 12 97 25.5Q109 39 109 81L109 265Q109 300 102 316Q95 332 77 332Q69 332 58.5 329Q48 326 34 319Q30 318 27.5 323.5Q25 329 29 331L165 394Q168 395 169 395Q172 395 175.5 392Q179 389 179 385Q179 376 178 346Q177 316 177 267L177 81Q177 39 188.5 25.5Q200 12 237 12Q240 12 240 6Q240 0 237 0Q219 0 194.5 1Q170 2 143 2Q116 2 92 1Q68 0 49 0ZM137 507Q114 507 101 519.5Q88 532 88 555Q88 577 101 589Q114 601 137 601Q160 601 172 589Q184 577 184 555Q184 507 137 507Z" transform="translate(531.9811 268) scale(0.0783 -0.0783)"/><path d="M233 -13Q172 -13 127.5 16Q83 45 59 93.5Q35 142 35 198Q35 250 54.5 288Q74 326 106 350.5Q138 375 176 387Q214 399 251 399Q313 399 357 369Q401 339 424.5 292Q448 245 448 193Q448 130 418 83.5Q388 37 339.5 12Q291 -13 233 -13ZM262 6Q311 6 338.5 44.5Q366 83 366 162Q366 229 346 277.5Q326 326 292.5 352.5Q259 379 217 379Q168 379 141.5 341.5Q115 304 115 231Q115 168 134 116.5Q153 65 186 35.5Q219 6 262 6Z" transform="translate(553.1147 268) scale(0.0783 -0.0783)"/><path d="M312 0Q309 0 309 6Q309 12 312 12Q348 12 359.5 25.5Q371 39 371 81L371 238Q371 295 350 322.5Q329 350 283 350Q248 350 212.5 329.5Q177 309 152 273L148 285Q189 341 232.5 370Q276 399 324 399Q379 399 409.5 367Q440 335 440 276L440 81Q440 39 451.5 25.5Q463 12 500 12Q503 12 503 6Q503 0 500 0Q481 0 457 1Q433 2 406 2Q379 2 354.5 1Q330 0 312 0ZM43 0Q40 0 40 6Q40 12 43 12Q79 12 90.5 25.5Q102 39 102 81L102 276Q102 308 94.5 323Q87 338 69 338Q59 338 46 334.5Q33 331 16 324Q12 322 10 327.5Q8 333 11 335L134 394Q138 395 140 395Q149 395 160 373Q171 351 171 310L171 81Q171 39 182.5 25.5Q194 12 231 12Q234 12 234 6Q234 0 231 0Q212 0 188 1Q164 2 137 2Q110 2 85.5 1Q61 0 43 0Z" transform="translate(590.8421 268) scale(0.0783 -0.0783)"/><path d="M106 329Q106 305 118.5 287.5Q131 270 151 257Q171 244 193 231Q219 218 242.5 203.5Q266 189 281 168Q296 147 296 113Q296 81 280 52.5Q264 24 232 6.5Q200 -11 152 -11Q128 -11 104 -5Q80 1 54 18Q52 20 50 23Q48 26 48 30L46 114Q46 117 51.5 117.5Q57 118 58 116Q70 83 88.5 58.5Q107 34 130.5 21Q154 8 181 8Q209 8 225 23Q241 38 240 68Q240 96 226.5 114.5Q213 133 193 145.5Q173 158 151 169Q127 181 104 195Q81 209 66.5 230Q52 251 52 285Q52 325 72.5 350Q93 375 125 386.5Q157 398 191 398Q211 398 229 394.5Q247 391 267 383Q276 379 276 372Q276 354 275 335Q274 316 274 294Q274 291 268 291Q262 291 262 294Q262 315 246 334Q230 353 206 365.5Q182 378 156 378Q135 378 120.5 367Q106 356 106 329Z" transform="translate(631.5439 268) scale(0.0783 -0.0783)"/></g>
<g fill="url(#parchment)" opacity="0.95" aria-label="Deterministic localization across languages."><path d="M92 0L92 710L312 710Q476 710 564.5 617.5Q653 525 653 354Q653 184 566 92Q479 0 318 0ZM178 84L312 84Q437 84 500 151.5Q563 219 563 354Q563 491 500 558.5Q437 626 312 626L178 626Z" transform="translate(81 355) scale(0.0283 -0.0283)"/><path d="M287 -12Q212 -12 157.5 22Q103 56 73.5 118.5Q44 181 44 265Q44 349 73.5 411Q103 473 156.5 507.5Q210 542 283 542Q352 542 405 509.5Q458 477 487.5 415Q517 353 517 264L517 239L132 239Q137 154 177.5 111Q218 68 287 68Q339 68 372.5 92.5Q406 117 419 157L509 150Q488 79 429.5 33.5Q371 -12 287 -12ZM132 313L425 313Q419 390 380.5 426Q342 462 283 462Q222 462 182.5 424.5Q143 387 132 313Z" transform="translate(101.019 355) scale(0.0283 -0.0283)"/><path d="M274 0Q202 0 167.5 33Q133 66 133 136L133 654L217 654L217 138Q217 102 233 88Q249 74 282 74L358 74L358 0ZM55 456L55 530L358 530L358 456Z" transform="translate(116.0333 355) scale(0.0283 -0.0283)"/><path d="M287 -12Q212 -12 157.5 22Q103 56 73.5 118.5Q44 181 44 265Q44 349 73.5 411Q103 473 156.5 507.5Q210 542 283 542Q352 542 405 509.5Q458 477 487.5 415Q517 353 517 264L517 239L132 239Q137 154 177.5 111Q218 68 287 68Q339 68 372.5 92.5Q406 117 419 157L509 150Q488 79 429.5 33.5Q371 -12 287 -12ZM132 313L425 313Q419 390 380.5 426Q342 462 283 462Q222 462 182.5 424.5Q143 387 132 313Z" transform="translate(126.6648 355) scale(0.0283 -0.0283)"/><path d="M80 0L80 530L154 530L158 396L150 399Q160 467 193.5 498.5Q227 530 283 530L335 530L335 450L284 450Q244 450 217.5 435.5Q191 421 177.5 392.5Q164 364 164 320L164 0Z" transform="translate(142.2446 355) scale(0.0283 -0.0283)"/><path d="M80 0L80 530L157 530L160 396L148 400Q157 444 179.5 475.5Q202 507 235 524.5Q268 542 308 542Q377 542 420.5 504Q464 466 475 398L459 399Q467 445 488.5 476.5Q510 508 544 525Q578 542 622 542Q679 542 718 518.5Q757 495 777 450Q797 405 797 341L797 0L713 0L713 323Q713 395 685 431.5Q657 468 602 468Q565 468 537.5 450Q510 432 495 398.5Q480 365 480 317L480 0L396 0L396 317Q396 388 371 428Q346 468 287 468Q250 468 222.5 450Q195 432 179.5 398Q164 364 164 317L164 0Z" transform="translate(151.83 355) scale(0.0283 -0.0283)"/><path d="M80 0L80 530L164 530L164 0ZM78 613L78 711L166 711L166 613Z" transform="translate(176.4579 355) scale(0.0283 -0.0283)"/><path d="M80 0L80 530L157 530L160 395L150 404Q160 451 185 481.5Q210 512 245.5 527Q281 542 322 542Q383 542 422.5 515Q462 488 481.5 442.5Q501 397 501 341L501 0L417 0L417 317Q417 366 405.5 399.5Q394 433 369 450.5Q344 468 304 468Q243 468 203.5 429.5Q164 391 164 317L164 0Z" transform="translate(183.5268 355) scale(0.0283 -0.0283)"/><path d="M80 0L80 530L164 530L164 0ZM78 613L78 711L166 711L166 613Z" transform="translate(199.7852 355) scale(0.0283 -0.0283)"/><path d="M273 -12Q200 -12 150.5 11Q101 34 74.5 74.5Q48 115 44 167L132 173Q140 125 171.5 96.5Q203 68 273 68Q327 68 356.5 85.5Q386 103 386 142Q386 163 376.5 177Q367 191 339 201.5Q311 212 257 222Q183 236 141 257Q99 278 82 308Q65 338 65 380Q65 451 117.5 496.5Q170 542 266 542Q336 542 380.5 517.5Q425 493 448 454Q471 415 476 372L388 366Q386 391 373 413Q360 435 334 448.5Q308 462 264 462Q207 462 180 440Q153 418 153 384Q153 358 163.5 341.5Q174 325 200.5 314.5Q227 304 273 296Q351 283 395 263Q439 243 456.5 213.5Q474 184 474 142Q474 69 417.5 28.5Q361 -12 273 -12Z" transform="translate(206.4016 355) scale(0.0283 -0.0283)"/><path d="M274 0Q202 0 167.5 33Q133 66 133 136L133 654L217 654L217 138Q217 102 233 88Q249 74 282 74L358 74L358 0ZM55 456L55 530L358 530L358 456Z" transform="translate(220.2566 355) scale(0.0283 -0.0283)"/><path d="M80 0L80 530L164 530L164 0ZM78 613L78 711L166 711L166 613Z" transform="translate(230.8881 355) scale(0.0283 -0.0283)"/><path d="M287 -12Q213 -12 158.5 22Q104 56 74 118.5Q44 181 44 265Q44 349 74 411Q104 473 158.5 507.5Q213 542 287 542Q348 542 395.5 520.5Q443 499 473 458Q503 417 512 358L424 352Q415 405 378 433.5Q341 462 287 462Q214 462 173 409.5Q132 357 132 265Q132 173 173 120.5Q214 68 287 68Q341 68 378 98Q415 128 424 188L512 182Q503 123 473 79.5Q443 36 395.5 12Q348 -12 287 -12Z" transform="translate(237.5046 355) scale(0.0283 -0.0283)"/><path d="M184 0Q138 0 109 24Q80 48 80 100L80 710L164 710L164 107Q164 91 172.5 82.5Q181 74 197 74L243 74L243 0Z" transform="translate(260.0119 355) scale(0.0283 -0.0283)"/><path d="M287 -12Q214 -12 159 22Q104 56 74 118.5Q44 181 44 265Q44 350 74 412Q104 474 159 508Q214 542 287 542Q360 542 414.5 508Q469 474 499 412Q529 350 529 265Q529 181 499 118.5Q469 56 414.5 22Q360 -12 287 -12ZM287 68Q360 68 400.5 120.5Q441 173 441 265Q441 357 400.5 409.5Q360 462 287 462Q214 462 173 409.5Q132 357 132 265Q132 173 173 120.5Q214 68 287 68Z" transform="translate(267.3918 355) scale(0.0283 -0.0283)"/><path d="M287 -12Q213 -12 158.5 22Q104 56 74 118.5Q44 181 44 265Q44 349 74 411Q104 473 158.5 507.5Q213 542 287 542Q348 542 395.5 520.5Q443 499 473 458Q503 417 512 358L424 352Q415 405 378 433.5Q341 462 287 462Q214 462 173 409.5Q132 357 132 265Q132 173 173 120.5Q214 68 287 68Q341 68 378 98Q415 128 424 188L512 182Q503 123 473 79.5Q443 36 395.5 12Q348 -12 287 -12Z" transform="translate(283.3108 355) scale(0.0283 -0.0283)"/><path d="M223 -12Q141 -12 92.5 26Q44 64 44 132Q44 200 84 239Q124 278 211 294L399 329Q399 396 367.5 429Q336 462 273 462Q218 462 186 437.5Q154 413 142 367L53 374Q68 449 125.5 495.5Q183 542 273 542Q375 542 429 484.5Q483 427 483 326L483 107Q483 89 489.5 81.5Q496 74 511 74L532 74L532 0Q528 -1 519 -1.5Q510 -2 500 -2Q464 -2 441.5 9.5Q419 21 409 45.5Q399 70 399 110L409 108Q402 74 375 46.5Q348 19 308 3.5Q268 -12 223 -12ZM231 62Q284 62 321.5 82.5Q359 103 379 138.5Q399 174 399 218L399 256L227 224Q173 214 152.5 193.5Q132 173 132 140Q132 103 158.5 82.5Q185 62 231 62Z" transform="translate(298.8623 355) scale(0.0283 -0.0283)"/><path d="M184 0Q138 0 109 24Q80 48 80 100L80 710L164 710L164 107Q164 91 172.5 82.5Q181 74 197 74L243 74L243 0Z" transform="translate(314.1593 355) scale(0.0283 -0.0283)"/><path d="M80 0L80 530L164 530L164 0ZM78 613L78 711L166 711L166 613Z" transform="translate(321.4827 355) scale(0.0283 -0.0283)"/><path d="M51 0L51 84L386 456L61 456L61 530L478 530L478 446L143 74L486 74L486 0Z" transform="translate(328.0991 355) scale(0.0283 -0.0283)"/><path d="M223 -12Q141 -12 92.5 26Q44 64 44 132Q44 200 84 239Q124 278 211 294L399 329Q399 396 367.5 429Q336 462 273 462Q218 462 186 437.5Q154 413 142 367L53 374Q68 449 125.5 495.5Q183 542 273 542Q375 542 429 484.5Q483 427 483 326L483 107Q483 89 489.5 81.5Q496 74 511 74L532 74L532 0Q528 -1 519 -1.5Q510 -2 500 -2Q464 -2 441.5 9.5Q419 21 409 45.5Q399 70 399 110L409 108Q402 74 375 46.5Q348 19 308 3.5Q268 -12 223 -12ZM231 62Q284 62 321.5 82.5Q359 103 379 138.5Q399 174 399 218L399 256L227 224Q173 214 152.5 193.5Q132 173 132 140Q132 103 158.5 82.5Q185 62 231 62Z" transform="translate(342.8589 355) scale(0.0283 -0.0283)"/><path d="M274 0Q202 0 167.5 33Q133 66 133 136L133 654L217 654L217 138Q217 102 233 88Q249 74 282 74L358 74L358 0ZM55 456L55 530L358 530L358 456Z" transform="translate(357.0249 355) scale(0.0283 -0.0283)"/><path d="M80 0L80 530L164 530L164 0ZM78 613L78 711L166 711L166 613Z" transform="translate(367.6565 355) scale(0.0283 -0.0283)"/><path d="M287 -12Q214 -12 159 22Q104 56 74 118.5Q44 181 44 265Q44 350 74 412Q104 474 159 508Q214 542 287 542Q360 542 414.5 508Q469 474 499 412Q529 350 529 265Q529 181 499 118.5Q469 56 414.5 22Q360 -12 287 -12ZM287 68Q360 68 400.5 120.5Q441 173 441 265Q441 357 400.5 409.5Q360 462 287 462Q214 462 173 409.5Q132 357 132 265Q132 173 173 120.5Q214 68 287 68Z" transform="translate(374.2729 355) scale(0.0283 -0.0283)"/><path d="M80 0L80 530L157 530L160 395L150 404Q160 451 185 481.5Q210 512 245.5 527Q281 542 322 542Q383 542 422.5 515Q462 488 481.5 442.5Q501 397 501 341L501 0L417 0L417 317Q417 366 405.5 399.5Q394 433 369 450.5Q344 468 304 468Q243 468 203.5 429.5Q164 391 164 317L164 0Z" transform="translate(390.192 355) scale(0.0283 -0.0283)"/><path d="M223 -12Q141 -12 92.5 26Q44 64 44 132Q44 200 84 239Q124 278 211 294L399 329Q399 396 367.5 429Q336 462 273 462Q218 462 186 437.5Q154 413 142 367L53 374Q68 449 125.5 495.5Q183 542 273 542Q375 542 429 484.5Q483 427 483 326L483 107Q483 89 489.5 81.5Q496 74 511 74L532 74L532 0Q528 -1 519 -1.5Q510 -2 500 -2Q464 -2 441.5 9.5Q419 21 409 45.5Q399 70 399 110L409 108Q402 74 375 46.5Q348 19 308 3.5Q268 -12 223 -12ZM231 62Q284 62 321.5 82.5Q359 103 379 138.5Q399 174 399 218L399 256L227 224Q173 214 152.5 193.5Q132 173 132 140Q132 103 158.5 82.5Q185 62 231 62Z" transform="translate(413.6889 355) scale(0.0283 -0.0283)"/><path d="M287 -12Q213 -12 158.5 22Q104 56 74 118.5Q44 181 44 265Q44 349 74 411Q104 473 158.5 507.5Q213 542 287 542Q348 542 395.5 520.5Q443 499 473 458Q503 417 512 358L424 352Q415 405 378 433.5Q341 462 287 462Q214 462 173 409.5Q132 357 132 265Q132 173 173 120.5Q214 68 287 68Q341 68 378 98Q415 128 424 188L512 182Q503 123 473 79.5Q443 36 395.5 12Q348 -12 287 -12Z" transform="translate(429.099 355) scale(0.0283 -0.0283)"/><path d="M80 0L80 530L154 530L158 396L150 399Q160 467 193.5 498.5Q227 530 283 530L335 530L335 450L284 450Q244 450 217.5 435.5Q191 421 177.5 392.5Q164 364 164 320L164 0Z" transform="translate(444.2547 355) scale(0.0283 -0.0283)"/><path d="M287 -12Q214 -12 159 22Q104 56 74 118.5Q44 181 44 265Q44 350 74 412Q104 474 159 508Q214 542 287 542Q360 542 414.5 508Q469 474 499 412Q529 350 529 265Q529 181 499 118.5Q469 56 414.5 22Q360 -12 287 -12ZM287 68Q360 68 400.5 120.5Q441 173 441 265Q441 357 400.5 409.5Q360 462 287 462Q214 462 173 409.5Q132 357 132 265Q132 173 173 120.5Q214 68 287 68Z" transform="translate(453.8401 355) scale(0.0283 -0.0283)"/><path d="M273 -12Q200 -12 150.5 11Q101 34 74.5 74.5Q48 115 44 167L132 173Q140 125 171.5 96.5Q203 68 273 68Q327 68 356.5 85.5Q386 103 386 142Q386 163 376.5 177Q367 191 339 201.5Q311 212 257 222Q183 236 141 257Q99 278 82 308Q65 338 65 380Q65 451 117.5 496.5Q170 542 266 542Q336 542 380.5 517.5Q425 493 448 454Q471 415 476 372L388 366Q386 391 373 413Q360 435 334 448.5Q308 462 264 462Q207 462 180 440Q153 418 153 384Q153 358 163.5 341.5Q174 325 200.5 314.5Q227 304 273 296Q351 283 395 263Q439 243 456.5 213.5Q474 184 474 142Q474 69 417.5 28.5Q361 -12 273 -12Z" transform="translate(469.7591 355) scale(0.0283 -0.0283)"/><path d="M273 -12Q200 -12 150.5 11Q101 34 74.5 74.5Q48 115 44 167L132 173Q140 125 171.5 96.5Q203 68 273 68Q327 68 356.5 85.5Q386 103 386 142Q386 163 376.5 177Q367 191 339 201.5Q311 212 257 222Q183 236 141 257Q99 278 82 308Q65 338 65 380Q65 451 117.5 496.5Q170 542 266 542Q336 542 380.5 517.5Q425 493 448 454Q471 415 476 372L388 366Q386 391 373 413Q360 435 334 448.5Q308 462 264 462Q207 462 180 440Q153 418 153 384Q153 358 163.5 341.5Q174 325 200.5 314.5Q227 304 273 296Q351 283 395 263Q439 243 456.5 213.5Q474 184 474 142Q474 69 417.5 28.5Q361 -12 273 -12Z" transform="translate(484.1796 355) scale(0.0283 -0.0283)"/><path d="M184 0Q138 0 109 24Q80 48 80 100L80 710L164 710L164 107Q164 91 172.5 82.5Q181 74 197 74L243 74L243 0Z" transform="translate(505.9517 355) scale(0.0283 -0.0283)"/><path d="M223 -12Q141 -12 92.5 26Q44 64 44 132Q44 200 84 239Q124 278 211 294L399 329Q399 396 367.5 429Q336 462 273 462Q218 462 186 437.5Q154 413 142 367L53 374Q68 449 125.5 495.5Q183 542 273 542Q375 542 429 484.5Q483 427 483 326L483 107Q483 89 489.5 81.5Q496 74 511 74L532 74L532 0Q528 -1 519 -1.5Q510 -2 500 -2Q464 -2 441.5 9.5Q419 21 409 45.5Q399 70 399 110L409 108Q402 74 375 46.5Q348 19 308 3.5Q268 -12 223 -12ZM231 62Q284 62 321.5 82.5Q359 103 379 138.5Q399 174 399 218L399 256L227 224Q173 214 152.5 193.5Q132 173 132 140Q132 103 158.5 82.5Q185 62 231 62Z" transform="translate(513.5013 355) scale(0.0283 -0.0283)"/><path d="M80 0L80 530L157 530L160 395L150 404Q160 451 185 481.5Q210 512 245.5 527Q281 542 322 542Q383 542 422.5 515Q462 488 481.5 442.5Q501 397 501 341L501 0L417 0L417 317Q417 366 405.5 399.5Q394 433 369 450.5Q344 468 304 468Q243 468 203.5 429.5Q164 391 164 317L164 0Z" transform="translate(528.9679 355) scale(0.0283 -0.0283)"/><path d="M281 -162Q224 -162 178 -143Q132 -124 101 -89Q70 -54 59 -8L147 -2Q159 -39 189.5 -60.5Q220 -82 281 -82Q353 -82 391.5 -53Q430 -24 430 34L430 120Q411 78 369 53Q327 28 275 28Q208 28 155.5 61Q103 94 73.5 152Q44 210 44 285Q44 361 73 418.5Q102 476 153.5 509Q205 542 271 542Q327 542 371.5 516Q416 490 434 446L434 530L514 530L514 36Q514 -26 486 -70.5Q458 -115 406 -138.5Q354 -162 281 -162ZM279 108Q347 108 388 155.5Q429 203 430 285Q431 340 412.5 379.5Q394 419 359.5 440.5Q325 462 279 462Q209 462 170.5 414.5Q132 367 132 285Q132 203 171.5 155.5Q211 108 279 108Z" transform="translate(545.0567 355) scale(0.0283 -0.0283)"/><path d="M254 -12Q175 -12 127.5 41.5Q80 95 80 189L80 530L164 530L164 212Q164 135 191.5 98.5Q219 62 276 62Q339 62 375 102.5Q411 143 411 214L411 530L495 530L495 0L415 0L415 131L428 124Q412 59 367 23.5Q322 -12 254 -12Z" transform="translate(561.8523 355) scale(0.0283 -0.0283)"/><path d="M223 -12Q141 -12 92.5 26Q44 64 44 132Q44 200 84 239Q124 278 211 294L399 329Q399 396 367.5 429Q336 462 273 462Q218 462 186 437.5Q154 413 142 367L53 374Q68 449 125.5 495.5Q183 542 273 542Q375 542 429 484.5Q483 427 483 326L483 107Q483 89 489.5 81.5Q496 74 511 74L532 74L532 0Q528 -1 519 -1.5Q510 -2 500 -2Q464 -2 441.5 9.5Q419 21 409 45.5Q399 70 399 110L409 108Q402 74 375 46.5Q348 19 308 3.5Q268 -12 223 -12ZM231 62Q284 62 321.5 82.5Q359 103 379 138.5Q399 174 399 218L399 256L227 224Q173 214 152.5 193.5Q132 173 132 140Q132 103 158.5 82.5Q185 62 231 62Z" transform="translate(578.1106 355) scale(0.0283 -0.0283)"/><path d="M281 -162Q224 -162 178 -143Q132 -124 101 -89Q70 -54 59 -8L147 -2Q159 -39 189.5 -60.5Q220 -82 281 -82Q353 -82 391.5 -53Q430 -24 430 34L430 120Q411 78 369 53Q327 28 275 28Q208 28 155.5 61Q103 94 73.5 152Q44 210 44 285Q44 361 73 418.5Q102 476 153.5 509Q205 542 271 542Q327 542 371.5 516Q416 490 434 446L434 530L514 530L514 36Q514 -26 486 -70.5Q458 -115 406 -138.5Q354 -162 281 -162ZM279 108Q347 108 388 155.5Q429 203 430 285Q431 340 412.5 379.5Q394 419 359.5 440.5Q325 462 279 462Q209 462 170.5 414.5Q132 367 132 285Q132 203 171.5 155.5Q211 108 279 108Z" transform="translate(593.5208 355) scale(0.0283 -0.0283)"/><path d="M287 -12Q212 -12 157.5 22Q103 56 73.5 118.5Q44 181 44 265Q44 349 73.5 411Q103 473 156.5 507.5Q210 542 283 542Q352 542 405 509.5Q458 477 487.5 415Q517 353 517 264L517 239L132 239Q137 154 177.5 111Q218 68 287 68Q339 68 372.5 92.5Q406 117 419 157L509 150Q488 79 429.5 33.5Q371 -12 287 -12ZM132 313L425 313Q419 390 380.5 426Q342 462 283 462Q222 462 182.5 424.5Q143 387 132 313Z" transform="translate(610.0336 355) scale(0.0283 -0.0283)"/><path d="M273 -12Q200 -12 150.5 11Q101 34 74.5 74.5Q48 115 44 167L132 173Q140 125 171.5 96.5Q203 68 273 68Q327 68 356.5 85.5Q386 103 386 142Q386 163 376.5 177Q367 191 339 201.5Q311 212 257 222Q183 236 141 257Q99 278 82 308Q65 338 65 380Q65 451 117.5 496.5Q170 542 266 542Q336 542 380.5 517.5Q425 493 448 454Q471 415 476 372L388 366Q386 391 373 413Q360 435 334 448.5Q308 462 264 462Q207 462 180 440Q153 418 153 384Q153 358 163.5 341.5Q174 325 200.5 314.5Q227 304 273 296Q351 283 395 263Q439 243 456.5 213.5Q474 184 474 142Q474 69 417.5 28.5Q361 -12 273 -12Z" transform="translate(625.6134 355) scale(0.0283 -0.0283)"/><path d="M44 0L44 113L157 113L157 0Z" transform="translate(640.3166 355) scale(0.0283 -0.0283)"/></g>
<circle cx="109" cy="513" r="27" fill="#09100b" stroke="#8e9360" stroke-width="2.2"/>
<g transform="translate(109 513) scale(0.34)" fill="none" stroke="#8e9360" stroke-width="3" stroke-linecap="square" stroke-linejoin="miter"><path d="M-33 -22L-33 25"/><path d="M0 -24L0 27"/><path d="M33 -22L33 25"/><polyline points="-33,-18 -20,-6 -33,6"/><polyline points="-20,-6 -10,-15 0,-9"/><polyline points="0,-9 12,3 21,-12"/><polyline points="33,-18 21,-12 33,0"/><polyline points="-33,9 -20,22 -10,14 0,21"/><polyline points="33,8 20,21"/><polyline points="0,19 12,26"/><path d="M-20 -40L20 -40"/><polyline points="13,-47 20,-40 13,-33"/><path d="M20 40L-20 40"/><polyline points="-13,33 -20,40 -13,47"/><path fill="#8e9360" stroke="#8e9360" d="M0 -14L5 -9L0 -4L-5 -9Z"/></g>
<path d="M143 487V539" stroke="#75633a"/>
<g fill="url(#gold)" opacity="1" aria-label="Translations"><path d="M233 0L233 626L12 626L12 710L540 710L540 626L319 626L319 0Z" transform="translate(176 522) scale(0.025 -0.025)"/><path d="M80 0L80 530L154 530L158 396L150 399Q160 467 193.5 498.5Q227 530 283 530L335 530L335 450L284 450Q244 450 217.5 435.5Q191 421 177.5 392.5Q164 364 164 320L164 0Z" transform="translate(188.55 522) scale(0.025 -0.025)"/><path d="M223 -12Q141 -12 92.5 26Q44 64 44 132Q44 200 84 239Q124 278 211 294L399 329Q399 396 367.5 429Q336 462 273 462Q218 462 186 437.5Q154 413 142 367L53 374Q68 449 125.5 495.5Q183 542 273 542Q375 542 429 484.5Q483 427 483 326L483 107Q483 89 489.5 81.5Q496 74 511 74L532 74L532 0Q528 -1 519 -1.5Q510 -2 500 -2Q464 -2 441.5 9.5Q419 21 409 45.5Q399 70 399 110L409 108Q402 74 375 46.5Q348 19 308 3.5Q268 -12 223 -12ZM231 62Q284 62 321.5 82.5Q359 103 379 138.5Q399 174 399 218L399 256L227 224Q173 214 152.5 193.5Q132 173 132 140Q132 103 158.5 82.5Q185 62 231 62Z" transform="translate(197.025 522) scale(0.025 -0.025)"/><path d="M80 0L80 530L157 530L160 395L150 404Q160 451 185 481.5Q210 512 245.5 527Q281 542 322 542Q383 542 422.5 515Q462 488 481.5 442.5Q501 397 501 341L501 0L417 0L417 317Q417 366 405.5 399.5Q394 433 369 450.5Q344 468 304 468Q243 468 203.5 429.5Q164 391 164 317L164 0Z" transform="translate(210.7 522) scale(0.025 -0.025)"/><path d="M273 -12Q200 -12 150.5 11Q101 34 74.5 74.5Q48 115 44 167L132 173Q140 125 171.5 96.5Q203 68 273 68Q327 68 356.5 85.5Q386 103 386 142Q386 163 376.5 177Q367 191 339 201.5Q311 212 257 222Q183 236 141 257Q99 278 82 308Q65 338 65 380Q65 451 117.5 496.5Q170 542 266 542Q336 542 380.5 517.5Q425 493 448 454Q471 415 476 372L388 366Q386 391 373 413Q360 435 334 448.5Q308 462 264 462Q207 462 180 440Q153 418 153 384Q153 358 163.5 341.5Q174 325 200.5 314.5Q227 304 273 296Q351 283 395 263Q439 243 456.5 213.5Q474 184 474 142Q474 69 417.5 28.5Q361 -12 273 -12Z" transform="translate(224.925 522) scale(0.025 -0.025)"/><path d="M184 0Q138 0 109 24Q80 48 80 100L80 710L164 710L164 107Q164 91 172.5 82.5Q181 74 197 74L243 74L243 0Z" transform="translate(237.8 522) scale(0.025 -0.025)"/><path d="M223 -12Q141 -12 92.5 26Q44 64 44 132Q44 200 84 239Q124 278 211 294L399 329Q399 396 367.5 429Q336 462 273 462Q218 462 186 437.5Q154 413 142 367L53 374Q68 449 125.5 495.5Q183 542 273 542Q375 542 429 484.5Q483 427 483 326L483 107Q483 89 489.5 81.5Q496 74 511 74L532 74L532 0Q528 -1 519 -1.5Q510 -2 500 -2Q464 -2 441.5 9.5Q419 21 409 45.5Q399 70 399 110L409 108Q402 74 375 46.5Q348 19 308 3.5Q268 -12 223 -12ZM231 62Q284 62 321.5 82.5Q359 103 379 138.5Q399 174 399 218L399 256L227 224Q173 214 152.5 193.5Q132 173 132 140Q132 103 158.5 82.5Q185 62 231 62Z" transform="translate(244.475 522) scale(0.025 -0.025)"/><path d="M274 0Q202 0 167.5 33Q133 66 133 136L133 654L217 654L217 138Q217 102 233 88Q249 74 282 74L358 74L358 0ZM55 456L55 530L358 530L358 456Z" transform="translate(257 522) scale(0.025 -0.025)"/><path d="M80 0L80 530L164 530L164 0ZM78 613L78 711L166 711L166 613Z" transform="translate(266.4 522) scale(0.025 -0.025)"/><path d="M287 -12Q214 -12 159 22Q104 56 74 118.5Q44 181 44 265Q44 350 74 412Q104 474 159 508Q214 542 287 542Q360 542 414.5 508Q469 474 499 412Q529 350 529 265Q529 181 499 118.5Q469 56 414.5 22Q360 -12 287 -12ZM287 68Q360 68 400.5 120.5Q441 173 441 265Q441 357 400.5 409.5Q360 462 287 462Q214 462 173 409.5Q132 357 132 265Q132 173 173 120.5Q214 68 287 68Z" transform="translate(272.25 522) scale(0.025 -0.025)"/><path d="M80 0L80 530L157 530L160 395L150 404Q160 451 185 481.5Q210 512 245.5 527Q281 542 322 542Q383 542 422.5 515Q462 488 481.5 442.5Q501 397 501 341L501 0L417 0L417 317Q417 366 405.5 399.5Q394 433 369 450.5Q344 468 304 468Q243 468 203.5 429.5Q164 391 164 317L164 0Z" transform="translate(286.325 522) scale(0.025 -0.025)"/><path d="M273 -12Q200 -12 150.5 11Q101 34 74.5 74.5Q48 115 44 167L132 173Q140 125 171.5 96.5Q203 68 273 68Q327 68 356.5 85.5Q386 103 386 142Q386 163 376.5 177Q367 191 339 201.5Q311 212 257 222Q183 236 141 257Q99 278 82 308Q65 338 65 380Q65 451 117.5 496.5Q170 542 266 542Q336 542 380.5 517.5Q425 493 448 454Q471 415 476 372L388 366Q386 391 373 413Q360 435 334 448.5Q308 462 264 462Q207 462 180 440Q153 418 153 384Q153 358 163.5 341.5Q174 325 200.5 314.5Q227 304 273 296Q351 283 395 263Q439 243 456.5 213.5Q474 184 474 142Q474 69 417.5 28.5Q361 -12 273 -12Z" transform="translate(300.55 522) scale(0.025 -0.025)"/></g>
<g transform="translate(930 316) scale(0.88) translate(-930 -316)"><g>
    <g fill="none" stroke="#75633a">
      <ellipse cx="930" cy="316" rx="220" ry="213" stroke-width=".7" opacity=".22"/>
      <ellipse cx="930" cy="316" rx="188" ry="194" stroke-dasharray="4 10" opacity=".54"/>
      <ellipse cx="930" cy="316" rx="145" ry="150" opacity=".26"/>
      <ellipse cx="930" cy="316" rx="220" ry="132" transform="rotate(31 930 316)" opacity=".17"/>
      <ellipse cx="930" cy="316" rx="220" ry="132" transform="rotate(-31 930 316)" opacity=".17"/>
      <polygon points="930.00,122.00 1076.98,195.04 1113.29,359.17 1011.57,490.79 848.43,490.79 746.71,359.17 783.02,195.04" opacity=".24"/>
      <path d="M691 316H1169M930 81V551" stroke-dasharray="2 9" opacity=".28"/>
    </g>
    <path d="M930 316L930.00 122.00" stroke="#c9a65b" stroke-width="1.35" stroke-dasharray="9 8" opacity=".67"/><path d="M925.00 219.00l5-5 5 5-5 5Z" fill="#0b100d" stroke="#c9a65b" stroke-width="1" opacity=".85"/><path d="M930 316L1076.98 195.04" stroke="#c9a65b" stroke-width="1.35" stroke-dasharray="9 8" opacity=".67"/><path d="M998.49 255.52l5-5 5 5-5 5Z" fill="#0b100d" stroke="#c9a65b" stroke-width="1" opacity=".85"/><path d="M930 316L1113.29 359.17" stroke="#c9a65b" stroke-width="1.35" stroke-dasharray="9 8" opacity=".67"/><path d="M1016.64 337.58l5-5 5 5-5 5Z" fill="#0b100d" stroke="#c9a65b" stroke-width="1" opacity=".85"/><path d="M930 316L1011.57 490.79" stroke="#c9a65b" stroke-width="1.35" stroke-dasharray="9 8" opacity=".67"/><path d="M965.79 403.39l5-5 5 5-5 5Z" fill="#0b100d" stroke="#c9a65b" stroke-width="1" opacity=".85"/><path d="M930 316L848.43 490.79" stroke="#c9a65b" stroke-width="1.35" stroke-dasharray="9 8" opacity=".67"/><path d="M884.21 403.39l5-5 5 5-5 5Z" fill="#0b100d" stroke="#c9a65b" stroke-width="1" opacity=".85"/><path d="M930 316L746.71 359.17" stroke="#c9a65b" stroke-width="1.35" stroke-dasharray="9 8" opacity=".67"/><path d="M833.36 337.58l5-5 5 5-5 5Z" fill="#0b100d" stroke="#c9a65b" stroke-width="1" opacity=".85"/><path d="M930 316L783.02 195.04" stroke="#c9a65b" stroke-width="1.35" stroke-dasharray="9 8" opacity=".67"/><path d="M851.51 255.52l5-5 5 5-5 5Z" fill="#0b100d" stroke="#c9a65b" stroke-width="1" opacity=".85"/>
    <g opacity=".72"><g filter="url(#medallion-shadow)">
    <circle cx="930" cy="122" r="38.5" fill="#050806" fill-opacity=".78" stroke="#75633a" stroke-width="1"/>
    <circle cx="930" cy="122" r="33.5" fill="none" stroke="url(#gold)" stroke-width="1.2" opacity=".72"/>
    <circle cx="930" cy="122" r="28.5" fill="url(#medallion)" stroke="url(#gold)" stroke-width="3"/>
    <circle cx="930" cy="122" r="20.5" fill="none" stroke="#75633a" stroke-width="1.1" opacity=".9"/>
    <circle cx="922.875" cy="112.88" r="14.82" fill="none" stroke="#f3d991" stroke-width=".65" opacity=".26"/>
    <g fill="none" stroke="#75633a" stroke-width="1.2" opacity=".8"><path d="M963.5 122L968.5 122"/><path d="M930 155.5L930 160.5"/><path d="M896.5 122L891.5 122"/><path d="M930 88.5L930 83.5"/></g>
    <g transform="translate(930 122) scale(0.33059999999999995)" fill="none" stroke="url(#sigil-gold)" stroke-width="3" stroke-linecap="square" stroke-linejoin="miter"><path d="M-39 0L39 0"/><path d="M0 -39L0 39"/><path d="M-27 -27L27 27"/><path d="M27 -27L-27 27"/><polyline points="-39,0 -30,-6 -30,6"/><polyline points="39,0 30,-6 30,6"/><polyline points="0,-39 -6,-30 6,-30"/><polyline points="0,39 -6,30 6,30"/><path d="M0 -11L11 0L0 11L-11 0Z"/><path fill="#c9a65b" stroke="#c9a65b" d="M0 -4L4 0L0 4L-4 0Z"/></g>
  </g><g filter="url(#medallion-shadow)">
    <circle cx="1076.9843187039896" cy="195.04297843940572" r="38.5" fill="#050806" fill-opacity=".78" stroke="#75633a" stroke-width="1"/>
    <circle cx="1076.9843187039896" cy="195.04297843940572" r="33.5" fill="none" stroke="url(#gold)" stroke-width="1.2" opacity=".72"/>
    <circle cx="1076.9843187039896" cy="195.04297843940572" r="28.5" fill="url(#medallion)" stroke="url(#gold)" stroke-width="3"/>
    <circle cx="1076.9843187039896" cy="195.04297843940572" r="20.5" fill="none" stroke="#75633a" stroke-width="1.1" opacity=".9"/>
    <circle cx="1069.8593187039896" cy="185.9229784394057" r="14.82" fill="none" stroke="#f3d991" stroke-width=".65" opacity=".26"/>
    <g fill="none" stroke="#75633a" stroke-width="1.2" opacity=".8"><path d="M1110.48 195.04L1115.48 195.04"/><path d="M1076.98 228.54L1076.98 233.54"/><path d="M1043.48 195.04L1038.48 195.04"/><path d="M1076.98 161.54L1076.98 156.54"/></g>
    <g transform="translate(1076.9843187039896 195.04297843940572) scale(0.33059999999999995)" fill="none" stroke="url(#sigil-gold)" stroke-width="3" stroke-linecap="square" stroke-linejoin="miter"><polyline points="-34,31 -34,-22 -22,-34 0,-22 22,-34 34,-22 34,31"/><polyline points="-24,31 -24,-13 0,0 24,-13 24,31"/><path d="M-34 18L34 18"/><path fill="#b77650" stroke="#b77650" d="M0 -6L6 0L0 6L-6 0Z"/></g>
  </g><g filter="url(#medallion-shadow)">
    <circle cx="1113.2864474901828" cy="359.169061187525" r="38.5" fill="#050806" fill-opacity=".78" stroke="#75633a" stroke-width="1"/>
    <circle cx="1113.2864474901828" cy="359.169061187525" r="33.5" fill="none" stroke="url(#gold)" stroke-width="1.2" opacity=".72"/>
    <circle cx="1113.2864474901828" cy="359.169061187525" r="28.5" fill="url(#medallion)" stroke="url(#gold)" stroke-width="3"/>
    <circle cx="1113.2864474901828" cy="359.169061187525" r="20.5" fill="none" stroke="#75633a" stroke-width="1.1" opacity=".9"/>
    <circle cx="1106.1614474901828" cy="350.049061187525" r="14.82" fill="none" stroke="#f3d991" stroke-width=".65" opacity=".26"/>
    <g fill="none" stroke="#75633a" stroke-width="1.2" opacity=".8"><path d="M1146.79 359.17L1151.79 359.17"/><path d="M1113.29 392.67L1113.29 397.67"/><path d="M1079.79 359.17L1074.79 359.17"/><path d="M1113.29 325.67L1113.29 320.67"/></g>
    <g transform="translate(1113.2864474901828 359.169061187525) scale(0.33059999999999995)" fill="none" stroke="url(#sigil-gold)" stroke-width="3" stroke-linecap="square" stroke-linejoin="miter"><path d="M0 -39L0 8"/><polyline points="0,8 -27,35"/><polyline points="0,8 27,35"/><path d="M0 8L0 39"/><path d="M0 -25L5 -20L0 -15L-5 -20Z"/><path fill="#78956f" stroke="#78956f" d="M0 2L6 8L0 14L-6 8Z"/><path d="M-27 31L-23 35L-27 39L-31 35Z"/><path d="M0 35L4 39L0 43L-4 39Z"/><path d="M27 31L31 35L27 39L23 35Z"/></g>
  </g><g filter="url(#medallion-shadow)">
    <circle cx="1011.5701429541009" cy="490.7879603730693" r="38.5" fill="#050806" fill-opacity=".78" stroke="#75633a" stroke-width="1"/>
    <circle cx="1011.5701429541009" cy="490.7879603730693" r="33.5" fill="none" stroke="url(#gold)" stroke-width="1.2" opacity=".72"/>
    <circle cx="1011.5701429541009" cy="490.7879603730693" r="28.5" fill="url(#medallion)" stroke="url(#gold)" stroke-width="3"/>
    <circle cx="1011.5701429541009" cy="490.7879603730693" r="20.5" fill="none" stroke="#75633a" stroke-width="1.1" opacity=".9"/>
    <circle cx="1004.4451429541009" cy="481.6679603730693" r="14.82" fill="none" stroke="#f3d991" stroke-width=".65" opacity=".26"/>
    <g fill="none" stroke="#75633a" stroke-width="1.2" opacity=".8"><path d="M1045.07 490.79L1050.07 490.79"/><path d="M1011.57 524.29L1011.57 529.29"/><path d="M978.07 490.79L973.07 490.79"/><path d="M1011.57 457.29L1011.57 452.29"/></g>
    <g transform="translate(1011.5701429541009 490.7879603730693) scale(0.33059999999999995)" fill="none" stroke="url(#sigil-gold)" stroke-width="3" stroke-linecap="square" stroke-linejoin="miter"><path d="M0 -38L30 -8L0 22L-30 -8Z"/><polyline points="-30,-8 -30,21 0,39 30,21 30,-8"/><path d="M0 22L0 39"/><path d="M-30 7L0 24"/><path d="M30 7L0 24"/><path fill="#a98755" stroke="#a98755" d="M0 -15L7 -8L0 -1L-7 -8Z"/></g>
  </g><g filter="url(#medallion-shadow)">
    <circle cx="848.4298570458991" cy="490.7879603730693" r="38.5" fill="#050806" fill-opacity=".78" stroke="#75633a" stroke-width="1"/>
    <circle cx="848.4298570458991" cy="490.7879603730693" r="33.5" fill="none" stroke="url(#gold)" stroke-width="1.2" opacity=".72"/>
    <circle cx="848.4298570458991" cy="490.7879603730693" r="28.5" fill="url(#medallion)" stroke="url(#gold)" stroke-width="3"/>
    <circle cx="848.4298570458991" cy="490.7879603730693" r="20.5" fill="none" stroke="#75633a" stroke-width="1.1" opacity=".9"/>
    <circle cx="841.3048570458991" cy="481.6679603730693" r="14.82" fill="none" stroke="#f3d991" stroke-width=".65" opacity=".26"/>
    <g fill="none" stroke="#75633a" stroke-width="1.2" opacity=".8"><path d="M881.93 490.79L886.93 490.79"/><path d="M848.43 524.29L848.43 529.29"/><path d="M814.93 490.79L809.93 490.79"/><path d="M848.43 457.29L848.43 452.29"/></g>
    <g transform="translate(848.4298570458991 490.7879603730693) scale(0.33059999999999995)" fill="none" stroke="url(#sigil-gold)" stroke-width="3" stroke-linecap="square" stroke-linejoin="miter"><polyline points="-38,-34 -25,-34 -25,34 -38,34"/><polyline points="38,-34 25,-34 25,34 38,34"/><path d="M-14 -20L14 -20"/><path d="M-14 0L10 0"/><path d="M-14 20L6 20"/><polyline points="8,10 22,24 12,30"/><path fill="#b08a58" stroke="#b08a58" d="M10 -5L15 0L10 5L5 0Z"/></g>
  </g><g filter="url(#medallion-shadow)">
    <circle cx="746.7135525098172" cy="359.169061187525" r="38.5" fill="#050806" fill-opacity=".78" stroke="#75633a" stroke-width="1"/>
    <circle cx="746.7135525098172" cy="359.169061187525" r="33.5" fill="none" stroke="url(#gold)" stroke-width="1.2" opacity=".72"/>
    <circle cx="746.7135525098172" cy="359.169061187525" r="28.5" fill="url(#medallion)" stroke="url(#gold)" stroke-width="3"/>
    <circle cx="746.7135525098172" cy="359.169061187525" r="20.5" fill="none" stroke="#75633a" stroke-width="1.1" opacity=".9"/>
    <circle cx="739.5885525098172" cy="350.049061187525" r="14.82" fill="none" stroke="#f3d991" stroke-width=".65" opacity=".26"/>
    <g fill="none" stroke="#75633a" stroke-width="1.2" opacity=".8"><path d="M780.21 359.17L785.21 359.17"/><path d="M746.71 392.67L746.71 397.67"/><path d="M713.21 359.17L708.21 359.17"/><path d="M746.71 325.67L746.71 320.67"/></g>
    <g transform="translate(746.7135525098172 359.169061187525) scale(0.33059999999999995)" fill="none" stroke="url(#sigil-gold)" stroke-width="3" stroke-linecap="square" stroke-linejoin="miter"><polyline points="-34,-31 -5,0 -34,31"/><path d="M-5 0L33 0"/><polyline points="15,-16 33,0 15,16"/><path d="M-16 32L33 32"/><path fill="#9a7657" stroke="#9a7657" d="M-5 -5L0 0L-5 5L-10 0Z"/></g>
  </g><g filter="url(#medallion-shadow)">
    <circle cx="783.0156812960104" cy="195.04297843940572" r="38.5" fill="#050806" fill-opacity=".78" stroke="#75633a" stroke-width="1"/>
    <circle cx="783.0156812960104" cy="195.04297843940572" r="33.5" fill="none" stroke="url(#gold)" stroke-width="1.2" opacity=".72"/>
    <circle cx="783.0156812960104" cy="195.04297843940572" r="28.5" fill="url(#medallion)" stroke="url(#gold)" stroke-width="3"/>
    <circle cx="783.0156812960104" cy="195.04297843940572" r="20.5" fill="none" stroke="#75633a" stroke-width="1.1" opacity=".9"/>
    <circle cx="775.8906812960104" cy="185.9229784394057" r="14.82" fill="none" stroke="#f3d991" stroke-width=".65" opacity=".26"/>
    <g fill="none" stroke="#75633a" stroke-width="1.2" opacity=".8"><path d="M816.52 195.04L821.52 195.04"/><path d="M783.02 228.54L783.02 233.54"/><path d="M749.52 195.04L744.52 195.04"/><path d="M783.02 161.54L783.02 156.54"/></g>
    <g transform="translate(783.0156812960104 195.04297843940572) scale(0.33059999999999995)" fill="none" stroke="url(#sigil-gold)" stroke-width="3" stroke-linecap="square" stroke-linejoin="miter"><polyline points="-36,-31 36,-31 36,20 0,39 -36,20 -36,-31"/><polyline points="-24,-18 24,-18 24,11 0,25 -24,11 -24,-18"/><path d="M0 25L0 39"/><path d="M-18 39L18 39"/><path fill="#7f8f75" stroke="#7f8f75" d="M0 -8L6 -2L0 4L-6 -2Z"/></g>
  </g></g>
    <g filter="url(#medallion-shadow)">
    <circle cx="930" cy="316" r="98" fill="#050806" fill-opacity=".78" stroke="#75633a" stroke-width="1"/>
    <circle cx="930" cy="316" r="93" fill="none" stroke="url(#gold)" stroke-width="1.2" opacity=".72"/>
    <circle cx="930" cy="316" r="88" fill="url(#medallion)" stroke="url(#gold)" stroke-width="4.5"/>
    <circle cx="930" cy="316" r="80" fill="none" stroke="#75633a" stroke-width="1.1" opacity=".9"/>
    <circle cx="908" cy="287.84" r="45.760000000000005" fill="none" stroke="#f3d991" stroke-width=".65" opacity=".26"/>
    <g fill="none" stroke="#75633a" stroke-width="1.2" opacity=".8"><path d="M1023 316L1031 316"/><path d="M930 409L930 417"/><path d="M837 316L829 316"/><path d="M930 223L930 215"/></g>
    <g transform="translate(930 316) scale(1.0208)" fill="none" stroke="url(#sigil-gold)" stroke-width="3" stroke-linecap="square" stroke-linejoin="miter"><path d="M-33 -22L-33 25"/><path d="M0 -24L0 27"/><path d="M33 -22L33 25"/><polyline points="-33,-18 -20,-6 -33,6"/><polyline points="-20,-6 -10,-15 0,-9"/><polyline points="0,-9 12,3 21,-12"/><polyline points="33,-18 21,-12 33,0"/><polyline points="-33,9 -20,22 -10,14 0,21"/><polyline points="33,8 20,21"/><polyline points="0,19 12,26"/><path d="M-20 -40L20 -40"/><polyline points="13,-47 20,-40 13,-33"/><path d="M20 40L-20 40"/><polyline points="-13,33 -20,40 -13,47"/><path fill="#8e9360" stroke="#8e9360" d="M0 -14L5 -9L0 -4L-5 -9Z"/></g>
  </g>
  </g></g>
</svg>
